<?xml version="1.0" encoding="UTF-8" standalone="no"?>
<svg width="234px" height="85px" viewBox="0 0 234 85" version="1.1" xmlns="http://www.w3.org/2000/svg" xmlns:xlink="http://www.w3.org/1999/xlink">
    <!-- Generator: Sketch 49.3 (51167) - http://www.bohemiancoding.com/sketch -->
    <title>bfa</title>
    <desc>Created with Sketch.</desc>
    <defs>
        <polygon id="path-1" points="0.0716326531 1.04583673 220.23101 1.04583673 220.23101 85.887551 0.0716326531 85.887551"></polygon>
    </defs>
    <g id="Page-1" stroke="none" stroke-width="1" fill="none" fill-rule="evenodd">
        <g id="Desktop-HD" transform="translate(-119.000000, -3003.000000)">
            <g id="Footer" transform="translate(0.000000, 2868.000000)">
                <g id="Sponsors" transform="translate(117.000000, 52.000000)">
                    <g id="bfa" transform="translate(2.000000, 82.000000)">
                        <path d="M125.535031,24.8505612 C125.055092,24.9627857 124.536949,25.057102 124.036714,25.057102 C121.908031,25.057102 120.43001,23.9921633 120.43001,21.7691633 C120.43001,19.5187041 121.805357,18.2579694 124.036714,18.2579694 C124.471286,18.2579694 125.045541,18.3403469 125.52548,18.5289796 L125.431163,19.6416735 C124.932122,19.3587245 124.480837,19.2930612 124.009255,19.2930612 C122.651816,19.2930612 121.805357,20.3305408 121.805357,21.6760408 C121.805357,23.0119898 122.632714,24.0208163 124.036714,24.0208163 C124.554857,24.0208163 125.16851,23.907398 125.477724,23.7498061 L125.535031,24.8505612" id="Fill-1" fill="#FFFFFE"></path>
                        <path d="M128.778796,19.9807347 C130.219806,19.9807347 131.322949,20.952551 131.322949,22.5523469 C131.322949,23.9467959 130.389337,25.057102 128.778796,25.057102 C127.176612,25.057102 126.245388,23.9467959 126.245388,22.5523469 C126.245388,20.952551 127.346143,19.9807347 128.778796,19.9807347 M128.778796,24.0781224 C129.748224,24.0781224 130.00252,23.2113673 130.00252,22.4019184 C130.00252,21.6581327 129.608541,20.962102 128.778796,20.962102 C127.958602,20.962102 127.563429,21.6760408 127.563429,22.4019184 C127.563429,23.2018163 127.817724,24.0781224 128.778796,24.0781224" id="Fill-2" fill="#FFFFFE"></path>
                        <path d="M132.455939,20.0929592 L133.633102,20.0929592 L133.633102,20.7710816 L133.65101,20.7710816 C134.047378,20.1789184 134.621633,19.9807347 135.09202,19.9807347 C135.771337,19.9807347 136.251276,20.2362245 136.52348,20.8379388 C136.817173,20.2541327 137.447541,19.9807347 138.042092,19.9807347 C139.237163,19.9807347 139.576224,20.7997347 139.576224,21.8825816 L139.576224,24.9436837 L138.313102,24.9436837 L138.313102,22.0521122 C138.313102,21.5996327 138.313102,20.9597143 137.588418,20.9597143 C136.750316,20.9597143 136.647643,21.9589898 136.647643,22.5893571 L136.647643,24.9436837 L135.38452,24.9436837 L135.38452,22.0521122 C135.38452,21.5996327 135.38452,20.9597143 134.659837,20.9597143 C133.820541,20.9597143 133.717867,21.9589898 133.717867,22.5893571 L133.717867,24.9436837 L132.455939,24.9436837 L132.455939,20.0929592" id="Fill-3" fill="#FFFFFE"></path>
                        <path d="M140.805918,20.0929592 L141.983082,20.0929592 L141.983082,20.7710816 L142.002184,20.7710816 C142.398551,20.1789184 142.971612,19.9807347 143.444388,19.9807347 C144.121316,19.9807347 144.603643,20.2362245 144.875847,20.8379388 C145.168347,20.2541327 145.79752,19.9807347 146.393265,19.9807347 C147.587143,19.9807347 147.928592,20.7997347 147.928592,21.8825816 L147.928592,24.9436837 L146.664276,24.9436837 L146.664276,22.0521122 C146.664276,21.5996327 146.664276,20.9597143 145.939592,20.9597143 C145.100296,20.9597143 144.997622,21.9589898 144.997622,22.5893571 L144.997622,24.9436837 L143.735694,24.9436837 L143.735694,22.0521122 C143.735694,21.5996327 143.735694,20.9597143 143.01101,20.9597143 C142.171714,20.9597143 142.069041,21.9589898 142.069041,22.5893571 L142.069041,24.9436837 L140.805918,24.9436837 L140.805918,20.0929592" id="Fill-4" fill="#FFFFFE"></path>
                        <path d="M153.630551,24.9436837 L152.43548,24.9436837 L152.43548,24.287051 L152.415184,24.287051 C152.030755,24.7562449 151.483959,25.057102 150.824939,25.057102 C149.674041,25.057102 149.176194,24.2476531 149.176194,23.1540612 L149.176194,20.0929592 L150.438122,20.0929592 L150.438122,22.6836735 C150.438122,23.2770306 150.447673,24.0781224 151.257122,24.0781224 C152.171633,24.0781224 152.368622,23.088398 152.368622,22.4675816 L152.368622,20.0929592 L153.630551,20.0929592 L153.630551,24.9436837" id="Fill-5" fill="#FFFFFE"></path>
                        <path d="M155.094245,20.0929592 L156.29051,20.0929592 L156.29051,20.7519796 L156.308418,20.7519796 C156.704786,20.1980204 157.243224,19.9807347 157.902245,19.9807347 C159.049561,19.9807347 159.55099,20.7901837 159.55099,21.8825816 L159.55099,24.9436837 L158.286673,24.9436837 L158.286673,22.3541633 C158.286673,21.7596122 158.27951,20.9597143 157.467673,20.9597143 C156.554357,20.9597143 156.356173,21.9482449 156.356173,22.5702551 L156.356173,24.9436837 L155.094245,24.9436837 L155.094245,20.0929592" id="Fill-6" fill="#FFFFFE"></path>
                        <path d="M161.042143,19.2082959 L162.304071,19.2082959 L162.304071,18.0024796 L161.042143,18.0024796 L161.042143,19.2082959 Z M161.042143,24.9436837 L162.304071,24.9436837 L162.304071,20.0929592 L161.042143,20.0929592 L161.042143,24.9436837 Z" id="Fill-7" fill="#FFFFFE"></path>
                        <path d="M166.751265,21.1399898 C166.524429,21.0349286 166.280878,20.9597143 165.894061,20.9597143 C165.113265,20.9597143 164.611837,21.5829184 164.611837,22.4974286 C164.611837,23.390449 165.036857,24.0781224 165.923908,24.0781224 C166.280878,24.0781224 166.677245,23.9467959 166.892143,23.8512857 L166.949449,24.8983163 C166.582929,25.0093469 166.205663,25.057102 165.686327,25.057102 C164.094888,25.057102 163.29499,23.975449 163.29499,22.4974286 C163.29499,21.0922347 164.123541,19.9807347 165.639765,19.9807347 C166.148357,19.9807347 166.517265,20.0380408 166.864684,20.1395204 L166.751265,21.1399898" id="Fill-8" fill="#FFFFFE"></path>
                        <path d="M168.16601,20.3472551 C168.657888,20.1216122 169.315714,19.9807347 169.852959,19.9807347 C171.332173,19.9807347 171.944633,20.592 171.944633,22.0258469 L171.944633,22.6466633 C171.944633,23.1361531 171.951796,23.5026735 171.963735,23.8608367 C171.972092,24.2297449 171.991194,24.5676122 172.019847,24.9436837 L170.908347,24.9436837 C170.860592,24.6905816 170.860592,24.3694286 170.851041,24.219 L170.833133,24.219 C170.540633,24.7562449 169.907878,25.057102 169.334816,25.057102 C168.478806,25.057102 167.63951,24.5389592 167.63951,23.6172857 C167.63951,22.8914082 167.986929,22.4675816 168.469255,22.2311939 C168.949194,21.9971939 169.57001,21.9482449 170.097704,21.9482449 L170.793735,21.9482449 C170.793735,21.167449 170.445122,20.9047959 169.702531,20.9047959 C169.164092,20.9047959 168.629235,21.1113367 168.204214,21.430102 L168.16601,20.3472551 Z M169.646418,24.1354286 C170.030847,24.1354286 170.332898,23.9647041 170.531082,23.7008571 C170.738816,23.4286531 170.793735,23.0800408 170.793735,22.7039694 L170.249327,22.7039694 C169.683429,22.7039694 168.845327,22.7970918 168.845327,23.5420714 C168.845327,23.9551531 169.192745,24.1354286 169.646418,24.1354286 Z" id="Fill-9" fill="#FFFFFE"></path>
                        <path d="M173.764102,21.0158265 L172.832878,21.0158265 L172.832878,20.0929592 L173.764102,20.0929592 L173.764102,19.1235306 L175.027224,18.7188061 L175.027224,20.0929592 L176.147082,20.0929592 L176.147082,21.0158265 L175.027224,21.0158265 L175.027224,23.2770306 C175.027224,23.6925 175.139449,24.0781224 175.621776,24.0781224 C175.846224,24.0781224 176.06351,24.0315612 176.194837,23.945602 L176.234235,24.9436837 C175.969194,25.0200918 175.676694,25.057102 175.300622,25.057102 C174.310898,25.057102 173.764102,24.4458367 173.764102,23.4847653 L173.764102,21.0158265" id="Fill-10" fill="#FFFFFE"></path>
                        <path d="M177.206051,19.2082959 L178.465592,19.2082959 L178.465592,18.0024796 L177.206051,18.0024796 L177.206051,19.2082959 Z M177.206051,24.9436837 L178.465592,24.9436837 L178.465592,20.0929592 L177.206051,20.0929592 L177.206051,24.9436837 Z" id="Fill-11" fill="#FFFFFE"></path>
                        <path d="M182.182133,19.9807347 C183.623143,19.9807347 184.725092,20.952551 184.725092,22.5523469 C184.725092,23.9467959 183.792673,25.057102 182.182133,25.057102 C180.579949,25.057102 179.646337,23.9467959 179.646337,22.5523469 C179.646337,20.952551 180.748286,19.9807347 182.182133,19.9807347 M182.182133,24.0781224 C183.151561,24.0781224 183.404663,23.2113673 183.404663,22.4019184 C183.404663,21.6581327 183.00949,20.962102 182.182133,20.962102 C181.361939,20.962102 180.965571,21.6760408 180.965571,22.4019184 C180.965571,23.2018163 181.221061,24.0781224 182.182133,24.0781224" id="Fill-12" fill="#FFFFFE"></path>
                        <path d="M185.877184,20.0929592 L187.072255,20.0929592 L187.072255,20.7519796 L187.091357,20.7519796 C187.487724,20.1980204 188.022582,19.9807347 188.682796,19.9807347 C189.834888,19.9807347 190.331541,20.7901837 190.331541,21.8825816 L190.331541,24.9436837 L189.069612,24.9436837 L189.069612,22.3541633 C189.069612,21.7596122 189.060061,20.9597143 188.250612,20.9597143 C187.337296,20.9597143 187.139112,21.9482449 187.139112,22.5702551 L187.139112,24.9436837 L185.877184,24.9436837 L185.877184,20.0929592" id="Fill-13" fill="#FFFFFE"></path>
                        <path d="M194.689194,18.3725816 L196.488367,18.3725816 C198.504827,18.3725816 200.283704,19.0471224 200.283704,21.6581327 C200.283704,24.2655612 198.504827,24.9436837 196.488367,24.9436837 L194.689194,24.9436837 L194.689194,18.3725816 Z M196.007235,23.907398 L196.742663,23.907398 C197.843418,23.907398 198.908357,23.088398 198.908357,21.6581327 C198.908357,20.2242857 197.843418,19.4076735 196.742663,19.4076735 L196.007235,19.4076735 L196.007235,23.907398 Z" id="Fill-14" fill="#FFFFFE"></path>
                        <path d="M205.429316,24.6714796 C204.969673,24.9257755 204.443173,25.057102 203.765051,25.057102 C202.162867,25.057102 201.229255,24.1354286 201.229255,22.541602 C201.229255,21.1399898 201.974235,19.9807347 203.480908,19.9807347 C205.281276,19.9807347 205.789867,21.2152041 205.789867,22.9081224 L202.435071,22.9081224 C202.491184,23.6925 203.03798,24.1354286 203.819969,24.1354286 C204.431235,24.1354286 204.960122,23.907398 205.429316,23.6459388 L205.429316,24.6714796 Z M204.584051,22.0425612 C204.545847,21.430102 204.262898,20.9047959 203.556122,20.9047959 C202.848153,20.9047959 202.491184,21.3942857 202.435071,22.0425612 L204.584051,22.0425612 Z" id="Fill-15" fill="#FFFFFE"></path>
                        <path d="M209.82398,21.1113367 C209.437163,20.9788163 209.154214,20.9047959 208.693378,20.9047959 C208.351929,20.9047959 207.949592,21.0265714 207.949592,21.4408469 C207.949592,22.2120918 210.145133,21.7237959 210.145133,23.4740204 C210.145133,24.6058163 209.135112,25.057102 208.108378,25.057102 C207.628439,25.057102 207.140143,24.9735306 206.678112,24.8505612 L206.752133,23.8154694 C207.147306,24.0112653 207.562776,24.1354286 207.996153,24.1354286 C208.316112,24.1354286 208.825898,24.0112653 208.825898,23.5420714 C208.825898,22.5893571 206.630357,23.2400204 206.630357,21.4874082 C206.630357,20.4415714 207.543673,19.9807347 208.533398,19.9807347 C209.125561,19.9807347 209.512378,20.0738571 209.908745,20.1586224 L209.82398,21.1113367" id="Fill-16" fill="#FFFFFE"></path>
                        <path d="M211.312745,19.2082959 L212.577061,19.2082959 L212.577061,18.0024796 L211.312745,18.0024796 L211.312745,19.2082959 Z M211.312745,24.9436837 L212.577061,24.9436837 L212.577061,20.0929592 L211.312745,20.0929592 L211.312745,24.9436837 Z" id="Fill-17" fill="#FFFFFE"></path>
                        <path d="M218.521378,20.0929592 L218.521378,24.4756837 C218.521378,25.7925306 217.994878,27.0353571 215.96051,27.0353571 C215.460276,27.0353571 214.88602,26.9613367 214.284306,26.7046531 L214.38698,25.6337449 C214.772602,25.8390918 215.404163,26.0551837 215.800531,26.0551837 C217.193786,26.0551837 217.260643,25.0093469 217.260643,24.1724388 L217.241541,24.1724388 C217.006347,24.5867143 216.440449,24.9436837 215.734867,24.9436837 C214.30102,24.9436837 213.756612,23.7951735 213.756612,22.4950408 C213.756612,21.3274286 214.358327,19.9807347 215.808888,19.9807347 C216.45,19.9807347 216.949041,20.1980204 217.297653,20.7519796 L217.316755,20.7519796 L217.316755,20.0929592 L218.521378,20.0929592 Z M217.260643,22.4675816 C217.260643,21.6390306 216.93949,20.9597143 216.206449,20.9597143 C215.349245,20.9597143 215.074653,21.752449 215.074653,22.4950408 C215.074653,23.1540612 215.423265,23.9647041 216.147949,23.9647041 C216.93949,23.9647041 217.260643,23.2770306 217.260643,22.4675816 Z" id="Fill-18" fill="#FFFFFE"></path>
                        <path d="M219.985071,20.0929592 L221.182531,20.0929592 L221.182531,20.7519796 L221.200439,20.7519796 C221.595612,20.1980204 222.132857,19.9807347 222.791878,19.9807347 C223.942776,19.9807347 224.441816,20.7901837 224.441816,21.8825816 L224.441816,24.9436837 L223.178694,24.9436837 L223.178694,22.3541633 C223.178694,21.7596122 223.169143,20.9597143 222.3585,20.9597143 C221.44399,20.9597143 221.247,21.9482449 221.247,22.5702551 L221.247,24.9436837 L219.985071,24.9436837 L219.985071,20.0929592" id="Fill-19" fill="#FFFFFE"></path>
                        <path d="M124.397265,41.0168571 C123.981796,40.8365816 123.520959,40.7339082 123.057735,40.7339082 C122.606449,40.7339082 122.022643,40.930898 122.022643,41.6472245 C122.022643,42.7873776 124.904663,42.305051 124.904663,44.5113367 C124.904663,45.9511531 123.76451,46.4967551 122.436918,46.4967551 C121.719398,46.4967551 121.400633,46.4036327 120.749969,46.2424592 L120.874133,45.0557449 C121.325418,45.3016837 121.844755,45.4604694 122.362898,45.4604694 C122.859551,45.4604694 123.53051,45.2073673 123.53051,44.6128163 C123.53051,43.3604388 120.647296,43.8797755 120.647296,41.7045306 C120.647296,40.2348673 121.787449,39.6976224 122.94551,39.6976224 C123.510214,39.6976224 124.039102,39.7716429 124.519041,39.9316224 L124.397265,41.0168571" id="Fill-20" fill="#FFFFFE"></path>
                        <path d="M129.296939,42.5796429 C129.071296,42.4757755 128.827745,42.4005612 128.439735,42.4005612 C127.657745,42.4005612 127.158704,43.0225714 127.158704,43.9370816 C127.158704,44.8312959 127.583724,45.5177755 128.467194,45.5177755 C128.827745,45.5177755 129.221724,45.386449 129.437816,45.2921327 L129.496316,46.3367755 C129.128602,46.4501939 128.752531,46.4967551 128.233194,46.4967551 C126.640561,46.4967551 125.839469,45.4139082 125.839469,43.9370816 C125.839469,42.5318878 126.670408,41.4203878 128.186633,41.4203878 C128.695224,41.4203878 129.061745,41.4776939 129.410357,41.5803673 L129.296939,42.5796429" id="Fill-21" fill="#FFFFFE"></path>
                        <path d="M130.496786,39.3203571 L131.758714,39.3203571 L131.758714,42.1952143 L131.777816,42.1952143 C132.096582,41.7212449 132.644571,41.4203878 133.303592,41.4203878 C134.452102,41.4203878 134.952337,42.2298367 134.952337,43.3234286 L134.952337,46.3833367 L133.689214,46.3833367 L133.689214,43.7950102 C133.689214,43.2004592 133.679663,42.4017551 132.870214,42.4017551 C131.95451,42.4017551 131.758714,43.3890918 131.758714,44.011102 L131.758714,46.3833367 L130.496786,46.3833367 L130.496786,39.3203571" id="Fill-22" fill="#FFFFFE"></path>
                        <path d="M138.637837,41.4203878 C140.078847,41.4203878 141.18199,42.3910102 141.18199,43.9908061 C141.18199,45.386449 140.248378,46.4967551 138.637837,46.4967551 C137.035653,46.4967551 136.103235,45.386449 136.103235,43.9908061 C136.103235,42.3910102 137.206378,41.4203878 138.637837,41.4203878 M138.637837,45.5201633 C139.609653,45.5201633 139.862755,44.6510204 139.862755,43.8415714 C139.862755,43.0977857 139.467582,42.4017551 138.637837,42.4017551 C137.818837,42.4017551 137.422469,43.1156939 137.422469,43.8415714 C137.422469,44.6426633 137.676765,45.5201633 138.637837,45.5201633" id="Fill-23" fill="#FFFFFE"></path>
                        <path d="M144.557082,41.4203878 C145.996898,41.4203878 147.100041,42.3910102 147.100041,43.9908061 C147.100041,45.386449 146.166429,46.4967551 144.557082,46.4967551 C142.954898,46.4967551 142.02248,45.386449 142.02248,43.9908061 C142.02248,42.3910102 143.124429,41.4203878 144.557082,41.4203878 M144.557082,45.5201633 C145.527704,45.5201633 145.780806,44.6510204 145.780806,43.8415714 C145.780806,43.0977857 145.385633,42.4017551 144.557082,42.4017551 C143.736888,42.4017551 143.34052,43.1156939 143.34052,43.8415714 C143.34052,44.6426633 143.594816,45.5201633 144.557082,45.5201633" id="Fill-24" fill="#FFFFFE"></path>
                        <polygon id="Fill-25" fill="#FFFFFE" points="148.280786 46.3833367 149.542714 46.3833367 149.542714 39.3203571 148.280786 39.3203571"></polygon>
                        <path d="M156.036214,41.4203878 C157.477224,41.4203878 158.580367,42.3910102 158.580367,43.9908061 C158.580367,45.386449 157.647949,46.4967551 156.036214,46.4967551 C154.434031,46.4967551 153.502806,45.386449 153.502806,43.9908061 C153.502806,42.3910102 154.603561,41.4203878 156.036214,41.4203878 M156.036214,45.5201633 C157.006837,45.5201633 157.262327,44.6510204 157.262327,43.8415714 C157.262327,43.0977857 156.864765,42.4017551 156.036214,42.4017551 C155.217214,42.4017551 154.820847,43.1156939 154.820847,43.8415714 C154.820847,44.6426633 155.076337,45.5201633 156.036214,45.5201633" id="Fill-26" fill="#FFFFFE"></path>
                        <path d="M160.193296,42.4554796 L159.260878,42.4554796 L159.260878,41.5326122 L160.193296,41.5326122 L160.193296,40.8556837 C160.193296,39.8862551 160.740092,39.2069388 161.73698,39.2069388 C162.058133,39.2069388 162.416296,39.2546939 162.661041,39.312 L162.558367,40.3578367 C162.443755,40.2921735 162.286163,40.1871122 162.011571,40.1871122 C161.586551,40.1871122 161.455224,40.5536327 161.455224,40.930898 L161.455224,41.5326122 L162.558367,41.5326122 L162.558367,42.4554796 L161.455224,42.4554796 L161.455224,46.3833367 L160.193296,46.3833367 L160.193296,42.4554796" id="Fill-27" fill="#FFFFFE"></path>
                        <path d="M168.336735,39.8110408 L169.824306,39.8110408 L172.405469,46.3833367 L170.944163,46.3833367 L170.379459,44.8766633 L167.714724,44.8766633 L167.140469,46.3833367 L165.774673,46.3833367 L168.336735,39.8110408 Z M169.062612,41.1290816 L169.04351,41.1290816 L168.090796,43.8427653 L170.012939,43.8427653 L169.062612,41.1290816 Z" id="Fill-28" fill="#FFFFFE"></path>
                        <path d="M173.143286,41.5326122 L174.263143,41.5326122 L174.263143,42.6357551 L174.284633,42.6357551 C174.339551,42.1832755 174.857694,41.4203878 175.612224,41.4203878 C175.734,41.4203878 175.86652,41.4203878 175.997847,41.4585918 L175.997847,42.7300714 C175.885622,42.6632143 175.658786,42.6262041 175.431949,42.6262041 C174.405214,42.6262041 174.405214,43.9072347 174.405214,44.6032653 L174.405214,46.3833367 L173.143286,46.3833367 L173.143286,41.5326122" id="Fill-29" fill="#FFFFFE"></path>
                        <path d="M177.921184,42.4554796 L176.989959,42.4554796 L176.989959,41.5326122 L177.921184,41.5326122 L177.921184,40.5631837 L179.1855,40.1584592 L179.1855,41.5326122 L180.306551,41.5326122 L180.306551,42.4554796 L179.1855,42.4554796 L179.1855,44.7178776 C179.1855,45.1321531 179.297724,45.5177755 179.780051,45.5177755 C180.0045,45.5177755 180.221786,45.4712143 180.351918,45.386449 L180.390122,46.3833367 C180.126276,46.4609388 179.834969,46.4967551 179.457704,46.4967551 C178.470367,46.4967551 177.921184,45.8866837 177.921184,44.9256122 L177.921184,42.4554796" id="Fill-30" fill="#FFFFFE"></path>
                        <path d="M184.331112,41.788102 C184.82299,41.5612653 185.48201,41.4203878 186.019255,41.4203878 C187.497276,41.4203878 188.108541,42.0328469 188.108541,43.4643061 L188.108541,44.0863163 C188.108541,44.5746122 188.119286,44.9423265 188.128837,45.3016837 C188.137194,45.669398 188.15749,46.0072653 188.183755,46.3833367 L187.074643,46.3833367 C187.0245,46.1314286 187.0245,45.8102755 187.016143,45.6598469 L186.998235,45.6598469 C186.705735,46.195898 186.07298,46.4967551 185.499918,46.4967551 C184.642714,46.4967551 183.805806,45.9798061 183.805806,45.0557449 C183.805806,44.3322551 184.153224,43.9072347 184.633163,43.6720408 C185.11549,43.4368469 185.736306,43.3890918 186.262806,43.3890918 L186.960031,43.3890918 C186.960031,42.607102 186.611418,42.344449 185.868827,42.344449 C185.330388,42.344449 184.793143,42.5509898 184.37051,42.870949 L184.331112,41.788102 Z M185.81152,45.5750816 C186.197143,45.5750816 186.499194,45.4043571 186.696184,45.1417041 C186.903918,44.8671122 186.960031,44.5196939 186.960031,44.1424286 L186.414429,44.1424286 C185.849724,44.1424286 185.011622,44.2379388 185.011622,44.9817245 C185.011622,45.3936122 185.359041,45.5750816 185.81152,45.5750816 Z" id="Fill-31" fill="#FFFFFE"></path>
                        <path d="M189.514929,41.5326122 L190.713582,41.5326122 L190.713582,42.1928265 L190.729102,42.1928265 C191.125469,41.6388673 191.663908,41.4203878 192.322929,41.4203878 C193.471439,41.4203878 193.971673,42.2298367 193.971673,43.3234286 L193.971673,46.3833367 L192.709745,46.3833367 L192.709745,43.7950102 C192.709745,43.2004592 192.700194,42.4005612 191.888357,42.4005612 C190.975041,42.4005612 190.778051,43.3890918 190.778051,44.011102 L190.778051,46.3833367 L189.514929,46.3833367 L189.514929,41.5326122" id="Fill-32" fill="#FFFFFE"></path>
                        <path d="M198.666,45.8377347 L198.648092,45.8377347 C198.268439,46.3093163 197.75149,46.4967551 197.158133,46.4967551 C195.670561,46.4967551 195.122571,45.2730306 195.122571,43.9466327 C195.122571,42.607102 195.670561,41.4203878 197.158133,41.4203878 C197.7885,41.4203878 198.232622,41.6388673 198.6075,42.100898 L198.626602,42.100898 L198.626602,39.3203571 L199.889724,39.3203571 L199.889724,46.3833367 L198.666,46.3833367 L198.666,45.8377347 Z M197.507939,45.5177755 C198.346041,45.5177755 198.618245,44.6331122 198.618245,43.9466327 C198.618245,43.2661224 198.298286,42.4005612 197.488837,42.4005612 C196.669837,42.4005612 196.440612,43.2959694 196.440612,43.9466327 C196.440612,44.6128163 196.679388,45.5177755 197.507939,45.5177755 Z" id="Fill-33" fill="#FFFFFE"></path>
                        <path d="M204.246184,39.8110408 L206.046551,39.8110408 C208.061816,39.8110408 209.843082,40.4879694 209.843082,43.0977857 C209.843082,45.7064082 208.061816,46.3833367 206.046551,46.3833367 L204.246184,46.3833367 L204.246184,39.8110408 Z M205.565418,45.3482449 L206.302041,45.3482449 C207.402796,45.3482449 208.467735,44.5292449 208.467735,43.0977857 C208.467735,41.6651327 207.402796,40.8473265 206.302041,40.8473265 L205.565418,40.8473265 L205.565418,45.3482449 Z" id="Fill-34" fill="#FFFFFE"></path>
                        <path d="M214.989888,46.1123265 C214.526663,46.3666224 214.000163,46.4967551 213.322041,46.4967551 C211.718663,46.4967551 210.787439,45.5738878 210.787439,43.982449 C210.787439,42.5796429 211.532418,41.4203878 213.039092,41.4203878 C214.837071,41.4203878 215.346857,42.6536633 215.346857,44.3501633 L211.993255,44.3501633 C212.049367,45.1321531 212.598551,45.5738878 213.380541,45.5738878 C213.989418,45.5738878 214.518306,45.3482449 214.989888,45.084398 L214.989888,46.1123265 Z M214.139847,43.4834082 C214.104031,42.870949 213.822276,42.344449 213.114306,42.344449 C212.408724,42.344449 212.049367,42.8339388 211.993255,43.4834082 L214.139847,43.4834082 Z" id="Fill-35" fill="#FFFFFE"></path>
                        <path d="M219.380969,42.5509898 C218.994153,42.4184694 218.712398,42.344449 218.251561,42.344449 C217.911306,42.344449 217.506582,42.4662245 217.506582,42.8793061 C217.506582,43.6529388 219.700929,43.1646429 219.700929,44.9148673 C219.700929,46.0454694 218.692102,46.4967551 217.666561,46.4967551 C217.185429,46.4967551 216.695939,46.4119898 216.236296,46.2902143 L216.310316,45.2539286 C216.706684,45.4521122 217.122153,45.5750816 217.551949,45.5750816 C217.87549,45.5750816 218.384082,45.4521122 218.384082,44.9817245 C218.384082,44.0302041 216.187347,44.6808673 216.187347,42.9270612 C216.187347,41.8824184 217.101857,41.4203878 218.089194,41.4203878 C218.684939,41.4203878 219.070561,41.5147041 219.465735,41.5982755 L219.380969,42.5509898" id="Fill-36" fill="#FFFFFE"></path>
                        <path d="M220.872122,40.647949 L222.135245,40.647949 L222.135245,39.4433265 L220.872122,39.4433265 L220.872122,40.647949 Z M220.872122,46.3833367 L222.135245,46.3833367 L222.135245,41.5326122 L220.872122,41.5326122 L220.872122,46.3833367 Z" id="Fill-37" fill="#FFFFFE"></path>
                        <path d="M228.079561,41.5326122 L228.079561,45.912949 C228.079561,47.2309898 227.553061,48.4750102 225.5175,48.4750102 C225.019653,48.4750102 224.445398,48.3997959 223.84249,48.1466939 L223.943969,47.0722041 C224.330786,47.2787449 224.962347,47.4948367 225.35752,47.4948367 C226.750776,47.4948367 226.818827,46.4501939 226.818827,45.6120918 L226.799724,45.6120918 C226.563337,46.0263673 225.998633,46.3833367 225.291857,46.3833367 C223.861592,46.3833367 223.312408,45.2372143 223.312408,43.9358878 C223.312408,42.7658878 223.917704,41.4203878 225.367071,41.4203878 C226.008184,41.4203878 226.507224,41.6388673 226.855837,42.1928265 L226.874939,42.1928265 L226.874939,41.5326122 L228.079561,41.5326122 Z M226.818827,43.9072347 C226.818827,43.0786837 226.497673,42.4005612 225.762245,42.4005612 C224.905041,42.4005612 224.632837,43.192102 224.632837,43.9358878 C224.632837,44.5937143 224.979061,45.4043571 225.707327,45.4043571 C226.497673,45.4043571 226.818827,44.7166837 226.818827,43.9072347 Z" id="Fill-38" fill="#FFFFFE"></path>
                        <path d="M229.543255,41.5326122 L230.740714,41.5326122 L230.740714,42.1928265 L230.758622,42.1928265 C231.153796,41.6388673 231.692235,41.4203878 232.350061,41.4203878 C233.500959,41.4203878 234,42.2298367 234,43.3234286 L234,46.3833367 L232.735684,46.3833367 L232.735684,43.7950102 C232.735684,43.2004592 232.72852,42.4005612 231.917878,42.4005612 C231.003367,42.4005612 230.805184,43.3890918 230.805184,44.011102 L230.805184,46.3833367 L229.543255,46.3833367 L229.543255,41.5326122" id="Fill-39" fill="#FFFFFE"></path>
                        <polyline id="Fill-40" fill="#FFFFFE" points="122.060847 62.2857857 120.176908 62.2857857 120.176908 61.2495 125.261633 61.2495 125.261633 62.2857857 123.378888 62.2857857 123.378888 67.8241837 122.060847 67.8241837 122.060847 62.2857857"></polyline>
                        <path d="M129.18352,67.5519796 C128.722684,67.8062755 128.19499,67.937602 127.516867,67.937602 C125.914684,67.937602 124.982265,67.0135408 124.982265,65.4244898 C124.982265,64.018102 125.727245,62.8600408 127.233918,62.8600408 C129.034286,62.8600408 129.542878,64.0933163 129.542878,65.7886224 L126.188082,65.7886224 C126.245388,66.5718061 126.789796,67.0135408 127.571786,67.0135408 C128.184245,67.0135408 128.714327,66.787898 129.18352,66.5252449 L129.18352,67.5519796 Z M128.334673,64.9218673 C128.298857,64.3117959 128.015908,63.784102 127.309133,63.784102 C126.602357,63.784102 126.245388,64.2735918 126.188082,64.9218673 L128.334673,64.9218673 Z" id="Fill-41" fill="#FFFFFE"></path>
                        <polyline id="Fill-42" fill="#FFFFFE" points="130.109969 62.9734592 131.598735 62.9734592 132.549061 64.5565408 133.48148 62.9734592 134.819816 62.9734592 133.369255 65.2824184 135.008449 67.8241837 133.501776 67.8241837 132.417735 66.0166531 131.324143 67.8241837 129.940439 67.8241837 131.605898 65.2824184 130.109969 62.9734592"></polyline>
                        <path d="M135.933704,63.2277551 C136.424388,63.0009184 137.082214,62.8600408 137.619459,62.8600408 C139.098673,62.8600408 139.711133,63.4725 139.711133,64.9051531 L139.711133,65.5259694 C139.711133,66.0166531 139.71949,66.3819796 139.731429,66.7425306 C139.739786,67.109051 139.758888,67.4457245 139.787541,67.8241837 L138.676041,67.8241837 C138.628286,67.5698878 138.628286,67.2499286 138.619929,67.0995 L138.599633,67.0995 C138.308327,67.6343571 137.675571,67.937602 137.101316,67.937602 C136.245306,67.937602 135.40601,67.4206531 135.40601,66.495398 C135.40601,65.7719082 135.753429,65.3468878 136.235755,65.1116939 C136.715694,64.8765 137.33651,64.8299388 137.865398,64.8299388 L138.561429,64.8299388 C138.561429,64.0467551 138.212816,63.784102 137.470224,63.784102 C136.934173,63.784102 136.396929,63.9906429 135.971908,64.3117959 L135.933704,63.2277551 Z M137.412918,67.0147347 C137.798541,67.0147347 138.100592,66.8440102 138.298776,66.5801633 C138.50651,66.3079592 138.561429,65.9593469 138.561429,65.5832755 L138.014633,65.5832755 C137.449929,65.5832755 136.61302,65.676398 136.61302,66.4213776 C136.61302,66.8356531 136.960439,67.0147347 137.412918,67.0147347 Z" id="Fill-43" fill="#FFFFFE"></path>
                        <path d="M143.999541,63.9906429 C143.612724,63.8593163 143.332163,63.784102 142.868939,63.784102 C142.531071,63.784102 142.125153,63.9058776 142.125153,64.3213469 C142.125153,65.0925918 144.3195,64.6042959 144.3195,66.3533265 C144.3195,67.4851224 143.313061,67.937602 142.28752,67.937602 C141.804,67.937602 141.315704,67.8528367 140.853673,67.7286735 L140.928888,66.6935816 C141.325255,66.8917653 141.739531,67.0147347 142.172908,67.0147347 C142.494061,67.0147347 143.002653,66.8917653 143.002653,66.4213776 C143.002653,65.471051 140.807112,66.1193265 140.807112,64.3679082 C140.807112,63.3220714 141.721622,62.8600408 142.710153,62.8600408 C143.304704,62.8600408 143.689133,62.9543571 144.0855,63.0403163 L143.999541,63.9906429" id="Fill-44" fill="#FFFFFE"></path>
                        <path d="M151.888684,62.4541224 C151.473214,62.2774286 151.012378,62.1723673 150.550347,62.1723673 C150.099061,62.1723673 149.514061,62.3717449 149.514061,63.0880714 C149.514061,64.2282245 152.397276,63.745898 152.397276,65.9497959 C152.397276,67.3908061 151.257122,67.937602 149.929531,67.937602 C149.21201,67.937602 148.893245,67.8432857 148.243776,67.6833061 L148.365551,66.495398 C148.818031,66.7425306 149.336173,66.9025102 149.853122,66.9025102 C150.353357,66.9025102 151.023122,66.6470204 151.023122,66.0536633 C151.023122,64.8000918 148.138714,65.3182347 148.138714,63.1441837 C148.138714,61.6733265 149.280061,61.1360816 150.438122,61.1360816 C151.002827,61.1360816 151.53052,61.210102 152.010459,61.3712755 L151.888684,62.4541224" id="Fill-45" fill="#FFFFFE"></path>
                        <path d="M154.059153,63.8951327 L153.125541,63.8951327 L153.125541,62.9734592 L154.059153,62.9734592 L154.059153,62.0040306 L155.321082,61.5993061 L155.321082,62.9734592 L156.442133,62.9734592 L156.442133,63.8951327 L155.321082,63.8951327 L155.321082,66.1575306 C155.321082,66.5718061 155.433306,66.9574286 155.914439,66.9574286 C156.140082,66.9574286 156.357367,66.9108673 156.488694,66.826102 L156.525704,67.8241837 C156.261857,67.9005918 155.971745,67.9364082 155.593286,67.9364082 C154.604755,67.9364082 154.059153,67.3251429 154.059153,66.3652653 L154.059153,63.8951327" id="Fill-46" fill="#FFFFFE"></path>
                        <path d="M157.687347,63.2277551 C158.178031,63.0009184 158.835857,62.8600408 159.374296,62.8600408 C160.852316,62.8600408 161.464776,63.4725 161.464776,64.9051531 L161.464776,65.5259694 C161.464776,66.0166531 161.473133,66.3819796 161.482684,66.7425306 C161.494622,67.109051 161.512531,67.4457245 161.538796,67.8241837 L160.42849,67.8241837 C160.380735,67.5698878 160.380735,67.2499286 160.373571,67.0995 L160.353276,67.0995 C160.060776,67.6343571 159.429214,67.937602 158.854959,67.937602 C157.998949,67.937602 157.159653,67.4206531 157.159653,66.495398 C157.159653,65.7719082 157.509459,65.3468878 157.989398,65.1116939 C158.468143,64.8765 159.091347,64.8299388 159.617847,64.8299388 L160.315071,64.8299388 C160.315071,64.0467551 159.966459,63.784102 159.22148,63.784102 C158.686622,63.784102 158.149378,63.9906429 157.724357,64.3117959 L157.687347,63.2277551 Z M159.165367,67.0147347 C159.553378,67.0147347 159.854235,66.8440102 160.052418,66.5801633 C160.258959,66.3079592 160.315071,65.9593469 160.315071,65.5832755 L159.768276,65.5832755 C159.203571,65.5832755 158.365469,65.676398 158.365469,66.4213776 C158.365469,66.8356531 158.714082,67.0147347 159.165367,67.0147347 Z" id="Fill-47" fill="#FFFFFE"></path>
                        <path d="M163.285439,63.8951327 L162.35302,63.8951327 L162.35302,62.9734592 L163.285439,62.9734592 L163.285439,62.0040306 L164.547367,61.5993061 L164.547367,62.9734592 L165.668418,62.9734592 L165.668418,63.8951327 L164.547367,63.8951327 L164.547367,66.1575306 C164.547367,66.5718061 164.660786,66.9574286 165.140724,66.9574286 C165.367561,66.9574286 165.583653,66.9108673 165.716173,66.826102 L165.753184,67.8241837 C165.489337,67.9005918 165.198031,67.9364082 164.820765,67.9364082 C163.832235,67.9364082 163.285439,67.3251429 163.285439,66.3652653 L163.285439,63.8951327" id="Fill-48" fill="#FFFFFE"></path>
                        <path d="M170.586,67.5519796 C170.125163,67.8062755 169.598663,67.937602 168.921735,67.937602 C167.319551,67.937602 166.385939,67.0135408 166.385939,65.4244898 C166.385939,64.018102 167.130918,62.8600408 168.638786,62.8600408 C170.437959,62.8600408 170.946551,64.0933163 170.946551,65.7886224 L167.591755,65.7886224 C167.650255,66.5718061 168.194663,67.0135408 168.977847,67.0135408 C169.589112,67.0135408 170.118,66.787898 170.586,66.5252449 L170.586,67.5519796 Z M169.740735,64.9218673 C169.702531,64.3117959 169.420776,63.784102 168.714,63.784102 C168.007224,63.784102 167.650255,64.2735918 167.591755,64.9218673 L169.740735,64.9218673 Z" id="Fill-49" fill="#FFFFFE"></path>
                        <path d="M174.944847,61.2495 L176.264082,61.2495 L176.264082,65.0472245 C176.264082,66.1658878 176.621051,66.9013163 177.628684,66.9013163 C178.63751,66.9013163 178.995673,66.1658878 178.995673,65.0472245 L178.995673,61.2495 L180.314908,61.2495 L180.314908,65.4507551 C180.314908,67.2117245 179.315633,67.937602 177.628684,67.937602 C175.944122,67.937602 174.944847,67.2117245 174.944847,65.4507551 L174.944847,61.2495" id="Fill-50" fill="#FFFFFE"></path>
                        <path d="M181.654439,62.9734592 L182.851898,62.9734592 L182.851898,63.6336735 L182.869806,63.6336735 C183.266173,63.0785204 183.802224,62.8600408 184.462439,62.8600408 C185.612143,62.8600408 186.112378,63.6706837 186.112378,64.7642755 L186.112378,67.8241837 L184.848061,67.8241837 L184.848061,65.2346633 C184.848061,64.6401122 184.840898,63.8414082 184.029061,63.8414082 C183.115745,63.8414082 182.917561,64.8299388 182.917561,65.4507551 L182.917561,67.8241837 L181.654439,67.8241837 L181.654439,62.9734592" id="Fill-51" fill="#FFFFFE"></path>
                        <path d="M187.414898,62.0887959 L188.675633,62.0887959 L188.675633,60.8829796 L187.414898,60.8829796 L187.414898,62.0887959 Z M187.414898,67.8241837 L188.675633,67.8241837 L188.675633,62.9734592 L187.414898,62.9734592 L187.414898,67.8241837 Z" id="Fill-52" fill="#FFFFFE"></path>
                        <polyline id="Fill-53" fill="#FFFFFE" points="189.629541 62.9734592 190.98698 62.9734592 192.191602 66.5061429 192.20951 66.5061429 193.377122 62.9734592 194.640245 62.9734592 192.850622 67.8241837 191.42752 67.8241837 189.629541 62.9734592"></polyline>
                        <path d="M199.456347,67.5519796 C198.994316,67.8062755 198.467816,67.937602 197.789694,67.937602 C196.18751,67.937602 195.255092,67.0135408 195.255092,65.4244898 C195.255092,64.018102 196.000071,62.8600408 197.507939,62.8600408 C199.308306,62.8600408 199.81451,64.0933163 199.81451,65.7886224 L196.460908,65.7886224 C196.51702,66.5718061 197.063816,67.0135408 197.845806,67.0135408 C198.457071,67.0135408 198.984765,66.787898 199.456347,66.5252449 L199.456347,67.5519796 Z M198.608694,64.9218673 C198.571684,64.3117959 198.289929,63.784102 197.583153,63.784102 C196.876378,63.784102 196.51702,64.2735918 196.460908,64.9218673 L198.608694,64.9218673 Z" id="Fill-54" fill="#FFFFFE"></path>
                        <path d="M200.995255,62.9734592 L202.116306,62.9734592 L202.116306,64.076602 L202.136602,64.076602 C202.19152,63.6229286 202.709663,62.8600408 203.461806,62.8600408 C203.587163,62.8600408 203.71849,62.8600408 203.852204,62.8994388 L203.852204,64.1697245 C203.736398,64.1040612 203.510755,64.0658571 203.285112,64.0658571 C202.257184,64.0658571 202.257184,65.3468878 202.257184,66.0441122 L202.257184,67.8241837 L200.995255,67.8241837 L200.995255,62.9734592" id="Fill-55" fill="#FFFFFE"></path>
                        <path d="M207.677388,63.9906429 C207.290571,63.8593163 207.007622,63.784102 206.545592,63.784102 C206.206531,63.784102 205.800612,63.9058776 205.800612,64.3213469 C205.800612,65.0925918 207.996153,64.6042959 207.996153,66.3533265 C207.996153,67.4851224 206.98852,67.937602 205.960592,67.937602 C205.479459,67.937602 204.991163,67.8528367 204.529133,67.7286735 L204.605541,66.6935816 C205.001908,66.8917653 205.417378,67.0147347 205.848367,67.0147347 C206.16952,67.0147347 206.679306,66.8917653 206.679306,66.4213776 C206.679306,65.471051 204.482571,66.1193265 204.482571,64.3679082 C204.482571,63.3220714 205.397082,62.8600408 206.385612,62.8600408 C206.981357,62.8600408 207.364592,62.9543571 207.759765,63.0403163 L207.677388,63.9906429" id="Fill-56" fill="#FFFFFE"></path>
                        <path d="M209.166153,62.0887959 L210.428082,62.0887959 L210.428082,60.8829796 L209.166153,60.8829796 L209.166153,62.0887959 Z M209.166153,67.8241837 L210.428082,67.8241837 L210.428082,62.9734592 L209.166153,62.9734592 L209.166153,67.8241837 Z" id="Fill-57" fill="#FFFFFE"></path>
                        <path d="M212.334704,63.8951327 L211.401092,63.8951327 L211.401092,62.9734592 L212.334704,62.9734592 L212.334704,62.0040306 L213.596633,61.5993061 L213.596633,62.9734592 L214.715296,62.9734592 L214.715296,63.8951327 L213.596633,63.8951327 L213.596633,66.1575306 C213.596633,66.5718061 213.708857,66.9574286 214.188796,66.9574286 C214.415633,66.9574286 214.631724,66.9108673 214.765439,66.826102 L214.801255,67.8241837 C214.538602,67.9005918 214.246102,67.9364082 213.868837,67.9364082 C212.880306,67.9364082 212.334704,67.3251429 212.334704,66.3652653 L212.334704,63.8951327" id="Fill-58" fill="#FFFFFE"></path>
                        <g id="Group-63">
                            <mask id="mask-2" fill="white">
                                <use xlink:href="#path-1"></use>
                            </mask>
                            <g id="Clip-60"></g>
                            <path d="M217.760878,66.5156939 L217.781173,66.5156939 L218.94998,62.9734592 L220.23101,62.9734592 L218.410347,67.7871735 C218.006816,68.8616633 217.713122,69.9158571 216.395082,69.9158571 C216.095418,69.9158571 215.792173,69.868102 215.503255,69.7833367 L215.585633,68.8509184 C215.746806,68.9082245 215.924694,68.9356837 216.236296,68.9356837 C216.743694,68.9356837 217.055296,68.5870714 217.055296,68.0701224 L215.20001,62.9734592 L216.593265,62.9734592 L217.760878,66.5156939" id="Fill-59" fill="#FFFFFE" mask="url(#mask-2)"></path>
                            <path d="M104.448765,2.90112245 L106.233612,2.90112245 L106.233612,1.04583673 L104.448765,1.04583673 L104.448765,2.90112245 Z M104.448765,9.28956122 L106.233612,9.28956122 L106.233612,7.43308163 L104.448765,7.43308163 L104.448765,9.28956122 Z M104.448765,15.6791939 L106.233612,15.6791939 L106.233612,13.825102 L104.448765,13.825102 L104.448765,15.6791939 Z M104.448765,22.0664388 L106.233612,22.0664388 L106.233612,20.2135408 L104.448765,20.2135408 L104.448765,22.0664388 Z M104.448765,28.4560714 L106.233612,28.4560714 L106.233612,26.6007857 L104.448765,26.6007857 L104.448765,28.4560714 Z M104.448765,34.8480918 L106.233612,34.8480918 L106.233612,32.9916122 L104.448765,32.9916122 L104.448765,34.8480918 Z M104.448765,41.2353367 L106.233612,41.2353367 L106.233612,39.3812449 L104.448765,39.3812449 L104.448765,41.2353367 Z M104.448765,47.6237755 L106.233612,47.6237755 L106.233612,45.7684898 L104.448765,45.7684898 L104.448765,47.6237755 Z M104.448765,54.0122143 L106.233612,54.0122143 L106.233612,52.1569286 L104.448765,52.1569286 L104.448765,54.0122143 Z M104.448765,60.4018469 L106.233612,60.4018469 L106.233612,58.5465612 L104.448765,58.5465612 L104.448765,60.4018469 Z M104.448765,66.7914796 L106.233612,66.7914796 L106.233612,64.9373878 L104.448765,64.9373878 L104.448765,66.7914796 Z M104.448765,73.1787245 L106.233612,73.1787245 L106.233612,71.3258265 L104.448765,71.3258265 L104.448765,73.1787245 Z M104.448765,79.5683571 L106.233612,79.5683571 L106.233612,77.7142653 L104.448765,77.7142653 L104.448765,79.5683571 Z M104.448765,85.9591837 L106.233612,85.9591837 L106.233612,84.103898 L104.448765,84.103898 L104.448765,85.9591837 Z" id="Fill-61" fill="#FFFFFE" mask="url(#mask-2)"></path>
                            <polygon id="Fill-62" fill="#FFFFFE" mask="url(#mask-2)" points="0.0716326531 30.6313163 5.19217347 30.6313163 5.19217347 25.437949 0.0716326531 25.437949"></polygon>
                        </g>
                        <path d="M15.0345,50.7756122 C12.4270714,50.7756122 10.4917959,48.8009388 10.4917959,45.9583163 C10.4917959,43.153898 12.4270714,41.1398265 15.0345,41.1398265 C17.6013367,41.1398265 19.6942041,43.153898 19.6942041,45.9583163 C19.6942041,48.8009388 17.6013367,50.7756122 15.0345,50.7756122 Z M15.5860714,35.5333776 C13.8095816,35.5333776 11.5973265,36.4001327 10.7293776,37.3480714 L10.7257959,30.6301224 L5.19217347,30.6301224 L5.19217347,55.9104796 L10.7293776,55.9104796 L10.7293776,54.4885714 C11.5973265,55.6335 13.7701837,56.3438571 15.5860714,56.3438571 C21.0361224,56.3438571 25.379449,51.6447551 25.379449,45.9583163 C25.379449,40.1906939 20.9179286,35.5333776 15.5860714,35.5333776 Z" id="Fill-64" fill="#FFFFFE"></path>
                        <polygon id="Fill-65" fill="#FFFFFE" points="74.6662959 55.9104796 79.8608571 55.9104796 79.8608571 50.7171122 74.6662959 50.7171122"></polygon>
                        <path d="M64.8108367,50.7756122 C62.2416122,50.7756122 60.1499388,48.8009388 60.1499388,45.9583163 C60.1499388,43.153898 62.2416122,41.1398265 64.8108367,41.1398265 C67.4158776,41.1398265 69.3511531,43.153898 69.3511531,45.9583163 C69.3511531,48.8009388 67.4158776,50.7756122 64.8108367,50.7756122 Z M74.6662959,35.9655612 L69.1135714,35.9655612 L69.1135714,37.3409082 C67.8779082,36.1935918 65.8375714,35.5333776 64.2580714,35.5333776 C58.9608367,35.5333776 54.4635,40.1906939 54.4635,45.9368265 C54.4635,51.6853469 58.8486122,56.3438571 64.2580714,56.3438571 C66.5359898,56.3438571 68.5321531,55.4269592 69.5302347,54.0396735 L69.5302347,50.7171122 L74.6662959,50.7171122 L74.6662959,35.9655612 Z" id="Fill-66" fill="#FFFFFE"></path>
                        <polygon id="Fill-67" fill="#FFFFFE" points="41.1016224 41.1398265 46.2949898 41.1398265 46.2949898 35.9464592 41.1016224 35.9464592"></polygon>
                        <polygon id="Fill-68" fill="#FFFFFE" points="35.4951735 55.9140612 41.1016224 55.9140612 41.1016224 41.1398265 35.4951735 41.1398265"></polygon>
                        <path d="M45.4091327,24.9997959 L45.4091327,24.9974082 C45.4031633,24.9974082 45.396,24.998602 45.3912245,24.998602 C45.3840612,24.998602 45.376898,24.9974082 45.3697347,24.9974082 L45.3697347,24.9997959 C39.9781837,25.018898 35.4533878,28.9610816 35.4533878,34.475602 L35.4533878,35.9464592 L41.1040102,35.9464592 C41.1040102,35.5453163 41.1040102,34.9507653 41.1040102,34.2798061 C41.1040102,32.3158776 42.9772041,30.6301224 45.3912245,30.6301224 C46.4227347,30.6301224 47.1951735,30.9226224 47.6643673,31.1482653 L49.0612041,25.6576224 C47.9282143,25.2385714 46.6949388,25.0045714 45.4091327,24.9997959" id="Fill-69" fill="#FFFFFE"></path>
                    </g>
                </g>
            </g>
        </g>
    </g>
</svg>