<?xml version="1.0" encoding="UTF-8" standalone="no"?>
<svg width="147px" height="135px" viewBox="0 0 147 135" version="1.1" xmlns="http://www.w3.org/2000/svg" xmlns:xlink="http://www.w3.org/1999/xlink">
    <!-- Generator: Sketch 49.3 (51167) - http://www.bohemiancoding.com/sketch -->
    <title>txst</title>
    <desc>Created with Sketch.</desc>
    <defs>
        <polygon id="path-1" points="0.0273913043 0.367043478 146.9895 0.367043478 146.9895 44.2721087 0.0273913043 44.2721087"></polygon>
        <polygon id="path-3" points="0.100891304 0.301304348 11.0811522 0.301304348 11.0811522 7.73347826 0.100891304 7.73347826"></polygon>
        <polygon id="path-5" points="0.306326087 0.305413043 10.6209783 0.305413043 10.6209783 10.4726087 0.306326087 10.4726087"></polygon>
        <polygon id="path-7" points="0.0273913043 0.392608696 129.113022 0.392608696 129.113022 91.3541087 0.0273913043 91.3541087"></polygon>
    </defs>
    <g id="Page-1" stroke="none" stroke-width="1" fill="none" fill-rule="evenodd">
        <g id="Desktop-HD" transform="translate(-667.000000, -3190.000000)">
            <g id="Footer" transform="translate(0.000000, 2868.000000)">
                <g id="Sponsors" transform="translate(117.000000, 52.000000)">
                    <g id="txst" transform="translate(550.000000, 270.000000)">
                        <g id="Group-4" transform="translate(0.000000, 0.456522)">
                            <mask id="mask-2" fill="white">
                                <use xlink:href="#path-1"></use>
                            </mask>
                            <g id="Clip-2"></g>
                            <path d="M144.067761,41.5882174 L144.507391,41.5882174 C144.864848,41.5882174 144.931957,41.3348478 144.931957,41.1896739 C144.931957,40.8057391 144.668087,40.8057391 144.52063,40.8057391 L144.067761,40.8057391 L144.067761,41.5882174 Z M143.538196,40.3528696 L144.507391,40.3528696 C144.840196,40.3528696 145.489826,40.3528696 145.489826,41.097913 C145.489826,41.6142391 145.156565,41.7215217 144.959348,41.7868043 C145.342826,41.8128261 145.370674,42.0666522 145.423174,42.4259348 C145.451478,42.651913 145.489826,43.0358478 145.570174,43.1696087 L144.971217,43.1696087 C144.959348,43.0358478 144.864848,42.3186522 144.864848,42.2793913 C144.8265,42.1200652 144.774,42.0388043 144.573587,42.0388043 L144.081913,42.0388043 L144.081913,43.1696087 L143.538196,43.1696087 L143.538196,40.3528696 Z M142.374522,41.7548478 C142.374522,42.9226304 143.318609,43.8653478 144.473609,43.8653478 C145.642304,43.8653478 146.584109,42.9043696 146.584109,41.7548478 C146.584109,40.5856957 145.629065,39.6553043 144.473609,39.6553043 C143.332304,39.6553043 142.374522,40.5715435 142.374522,41.7548478 Z M146.9895,41.7630652 C146.9895,43.1413043 145.861891,44.2721087 144.47863,44.2721087 C143.112717,44.2721087 141.968674,43.155 141.968674,41.7630652 C141.968674,40.3405435 143.137826,39.2521957 144.47863,39.2521957 C145.836783,39.2521957 146.9895,40.3405435 146.9895,41.7630652 Z" id="Fill-1" fill="#FFFFFE" mask="url(#mask-2)"></path>
                            <path d="M0.261130435,0.367043478 L25.5131739,0.367043478 L25.7519348,7.95397826 L24.6827609,7.95397826 C24.1605,5.5713913 23.4958043,4.02013043 22.6886739,3.29882609 C21.882,2.58026087 20.1837391,2.21869565 17.597087,2.21869565 L15.110413,2.21869565 L15.110413,25.0712609 C15.110413,26.7918913 15.3806739,27.8583261 15.917087,28.2705652 C16.454413,28.6828043 17.6331522,28.9544348 19.4510217,29.0836304 L19.4510217,29.9131304 L6.43193478,29.9131304 L6.43193478,29.0836304 C8.32147826,28.9384565 9.49930435,28.6293913 9.96586957,28.1509565 C10.4310652,27.6734348 10.6629783,26.4732391 10.6629783,24.548087 L10.6629783,2.21869565 L8.15621739,2.21869565 C5.68323913,2.21869565 4.00186957,2.57478261 3.10617391,3.28786957 C2.21321739,4.00095652 1.53984783,5.55723913 1.09154348,7.95397826 L0,7.95397826 L0.261130435,0.367043478" id="Fill-3" fill="#FFFFFE" mask="url(#mask-2)"></path>
                        </g>
                        <path d="M28.8667826,29.5401522 C30.5093478,29.3671304 31.574413,29.0749565 32.0615217,28.6631739 C32.5472609,28.2509348 32.7919565,27.2050435 32.7919565,25.5277826 L32.7919565,5.66406522 C32.7919565,4.0781087 32.5518261,3.04454348 32.0724783,2.5556087 C31.5922174,2.06986957 30.524413,1.76765217 28.8667826,1.65032609 L28.8667826,0.823565217 L52.5899348,0.823565217 L52.7410435,7.21076087 L51.6079565,7.21076087 C51.230413,5.24223913 50.6638696,3.96991304 49.9069565,3.39104348 C49.1532391,2.81491304 47.4645652,2.52502174 44.8486957,2.52502174 L38.7696522,2.52502174 C38.114087,2.52502174 37.7100652,2.63093478 37.5562174,2.83956522 C37.4046522,3.0513913 37.3270435,3.44628261 37.3270435,4.02834783 L37.3270435,13.9933043 L44.2155,13.9933043 C46.1205652,13.9933043 47.3344565,13.712087 47.859,13.146913 C48.3808043,12.5844783 48.803087,11.4404348 49.1226522,9.71934783 L50.169913,9.71934783 L50.169913,20.034913 L49.1226522,20.034913 C48.7880217,18.3033261 48.3588913,17.1592826 47.837087,16.599587 C47.3148261,16.0398913 46.1055,15.761413 44.2155,15.761413 L37.3270435,15.761413 L37.3270435,26.8156304 C37.3270435,27.7021957 37.6073478,28.2258261 38.168413,28.3846957 C38.7281087,28.5458478 40.4053696,28.6243696 43.1992826,28.6243696 C46.2287609,28.6243696 48.4616087,28.2952174 49.9042174,27.6328043 C51.345913,26.9722174 52.6415217,25.3693696 53.7910435,22.8242609 L55.0323261,22.8242609 L53.004913,30.3696522 L28.8667826,30.3696522 L28.8667826,29.5401522" id="Fill-5" fill="#FFFFFE"></path>
                        <path d="M55.5212609,29.5401522 C56.7150652,29.4123261 57.6235435,29.094587 58.242587,28.5937826 C58.862087,28.0925217 60.0951522,26.6969348 61.9417826,24.411587 L68.837087,15.8837609 L63.944087,8.71454348 C61.8139565,5.59056522 60.3170217,3.64715217 59.4505435,2.88384783 C58.5868043,2.121 57.4345435,1.71104348 55.9960435,1.65032609 L55.9960435,0.823565217 L69.4314783,0.823565217 L69.4314783,1.65032609 C68.1372391,1.69552174 67.2931304,1.78134783 66.9014348,1.91236957 C66.3097826,2.10182609 66.014413,2.51406522 66.014413,3.15136957 C66.014413,3.55767391 66.1573043,4.04386957 66.4476522,4.60721739 C66.5905435,4.89893478 66.7932391,5.23173913 67.0543696,5.607 L71.6611304,12.284087 L76.6728261,6.18586957 C77.4078261,5.30067391 77.9058913,4.58758696 78.1656522,4.05071739 C78.3249783,3.73023913 78.404413,3.43943478 78.404413,3.17921739 C78.404413,2.52502174 78.0880435,2.08767391 77.4521087,1.87036957 C77.0636087,1.73843478 76.3518913,1.66767391 75.3219783,1.65032609 L75.3219783,0.823565217 L85.899587,0.823565217 L85.899587,1.65032609 C84.7048696,1.68182609 83.7826957,1.87036957 83.1303261,2.21869565 C82.0976739,2.78706522 80.8171304,4.00871739 79.2909783,5.88547826 L72.8362174,13.9823478 L81.2978478,26.2326522 C82.2003913,27.5538261 82.9527391,28.3906304 83.5553478,28.7462609 C84.158413,29.1018913 85.0381304,29.3671304 86.1990652,29.5401522 L86.1990652,30.3696522 L73.0722391,30.3696522 L73.0722391,29.5401522 C74.3358913,29.5123043 75.2133261,29.4004565 75.7109348,29.2114565 C76.2076304,29.0192609 76.4555217,28.653587 76.4555217,28.1121522 C76.4555217,27.6442174 76.1245435,26.8658478 75.4639565,25.7811522 C74.7997174,24.6982826 72.9690652,21.9559565 69.972913,17.5587391 L64.7325,24.1399565 C63.9691957,25.1091522 63.4359783,25.8172174 63.1328478,26.2659783 C62.6566957,26.9745 62.4193043,27.5022391 62.4193043,27.8487391 C62.4193043,28.4846739 62.7927391,28.9334348 63.5441739,29.1950217 C63.9911087,29.3534348 64.7493913,29.4675652 65.8213043,29.5401522 L65.8213043,30.3696522 L55.5212609,30.3696522 L55.5212609,29.5401522" id="Fill-6" fill="#FFFFFE"></path>
                        <path d="M105.150196,18.899087 L100.03213,6.60130435 L94.8916957,18.899087 L105.150196,18.899087 Z M85.9183043,30.3696522 L85.9183043,29.5401522 C87.066,29.4109565 87.9265435,28.9804565 88.5013043,28.2436304 C89.0765217,27.510913 90.0589565,25.5003913 91.4536304,22.2148043 L100.757087,0.299934783 L101.645022,0.299934783 L112.772739,25.6168043 C113.514587,27.2936087 114.105783,28.3308261 114.550891,28.7284565 C114.992348,29.1256304 115.739217,29.3949783 116.786022,29.5401522 L116.786022,30.3696522 L105.427304,30.3696522 L105.427304,29.5401522 C106.732957,29.4264783 107.574783,29.2840435 107.95187,29.117413 C108.32987,28.9498696 108.51887,28.5431087 108.51887,27.8916522 C108.51887,27.6743478 108.446739,27.290413 108.302022,26.7421304 C108.157761,26.1911087 107.95187,25.6126957 107.691196,25.0046087 L105.902543,20.7082826 L94.1329565,20.7082826 C92.9747609,23.6318478 92.2813043,25.4141087 92.0562391,26.0568913 C91.8307174,26.702413 91.7202391,27.2123478 91.7202391,27.5885217 C91.7202391,28.340413 92.0224565,28.8603913 92.6332826,29.1507391 C93.0112826,29.3228478 93.722087,29.4538696 94.7661522,29.5401522 L94.7661522,30.3696522 L85.9183043,30.3696522 Z" id="Fill-7" fill="#FFFFFE"></path>
                        <path d="M119.896304,21.3853043 C120.651391,23.3921739 121.537957,24.9904565 122.551435,26.1824348 C124.323196,28.2618913 126.522717,29.3004783 129.149543,29.3004783 C130.572065,29.3004783 131.801478,28.8489783 132.840065,27.9487174 C133.879109,27.0484565 134.395435,25.7893696 134.395435,24.1773913 C134.395435,22.722913 133.87637,21.4574348 132.832304,20.3832391 C132.149348,19.698913 130.712674,18.6740217 128.521826,17.3076522 L124.712152,14.931913 C123.56537,14.2051304 122.651413,13.4696739 121.965717,12.7296522 C120.701609,11.319 120.071152,9.76454348 120.071152,8.06263043 C120.071152,5.80923913 120.818022,3.93384783 122.318152,2.43691304 C123.815087,0.940891304 125.798217,0.19173913 128.269826,0.19173913 C129.286043,0.19173913 130.510435,0.442369565 131.943457,0.943630435 C133.376022,1.4448913 134.192739,1.69552174 134.395435,1.69552174 C134.951022,1.69552174 135.331304,1.5645 135.542674,1.30245652 C135.75313,1.04086957 135.914739,0.670630435 136.033891,0.19173913 L136.948304,0.19173913 L137.930739,9.69697826 L136.861565,9.69697826 C136.13387,6.83504348 134.967913,4.83547826 133.362783,3.70147826 C131.754,2.56702174 130.166217,2.00002174 128.597152,2.00002174 C127.3755,2.00002174 126.311804,2.36067391 125.40287,3.0806087 C124.492565,3.79963043 124.039696,4.79941304 124.039696,6.07767391 C124.039696,7.22765217 124.386652,8.20780435 125.083761,9.02086957 C125.778587,9.85036957 126.861913,10.7163913 128.327804,11.6166522 L132.249326,14.0385 C134.706326,15.5500435 136.437,16.9369565 137.444543,18.2033478 C138.436109,19.4806957 138.933717,20.9922391 138.933717,22.7370652 C138.933717,25.0767391 138.049891,27.0343043 136.283609,28.6047391 C134.517326,30.1733478 132.259826,30.9571957 129.510652,30.9571957 C128.130587,30.9571957 126.688891,30.6951522 125.183739,30.1733478 C123.678587,29.6506304 122.818043,29.3867609 122.601652,29.3867609 C122.076196,29.3867609 121.724217,29.5483696 121.542978,29.8683913 C121.36037,30.186587 121.240761,30.5289783 121.18187,30.8932826 L120.202174,30.8932826 L118.87187,21.3853043 L119.896304,21.3853043" id="Fill-8" fill="#FFFFFE"></path>
                        <path d="M4.12969565,74.9996739 C4.86834783,76.9604348 5.73345652,78.5240217 6.72593478,79.6876957 C8.45752174,81.7201304 10.605913,82.7368043 13.1733913,82.7368043 C14.5630435,82.7368043 15.7655217,82.2953478 16.779,81.4119783 C17.7929348,80.5345435 18.3010435,79.305587 18.3010435,77.7269348 C18.3010435,76.3076087 17.7901957,75.0704348 16.7707826,74.0181522 C16.1042609,73.353 14.699087,72.3500217 12.558,71.0146957 L8.8368913,68.6928261 C7.71476087,67.9820217 6.82317391,67.2657391 6.15528261,66.5407826 C4.9181087,65.1616304 4.30180435,63.641413 4.30180435,61.9792174 C4.30180435,59.7769565 5.03223913,57.9449348 6.49584783,56.4799565 C7.95763043,55.0186304 9.89784783,54.285913 12.3137609,54.285913 C13.3076087,54.285913 14.5046087,54.5310652 15.9043043,55.0213696 C17.304,55.5116739 18.1024565,55.755913 18.3010435,55.755913 C18.8397391,55.755913 19.2131739,55.628087 19.4204348,55.3719783 C19.6272391,55.1172391 19.7851957,54.7543043 19.9006957,54.285913 L20.7950217,54.285913 L21.7541739,63.5775 L20.7101087,63.5775 C19.9979348,60.7790217 18.8593696,58.8246522 17.2903043,57.7180435 C15.7185,56.6082391 14.1658696,56.0544783 12.6328696,56.0544783 C11.4390652,56.0544783 10.3972826,56.4078261 9.51163043,57.1095 C8.62278261,57.813913 8.17858696,58.7913261 8.17858696,60.0394565 C8.17858696,61.1643261 8.52006522,62.1207391 9.20028261,62.9164565 C9.88095652,63.7245 10.9364348,64.5718043 12.3721957,65.4519783 L16.2042391,67.8181304 C18.6037174,69.2954348 20.2951304,70.6522174 21.2793913,71.8880217 C22.2499565,73.1388913 22.733413,74.6161957 22.733413,76.3217609 C22.733413,78.6071087 21.8710435,80.5203913 20.1449348,82.0533913 C18.417913,83.5863913 16.212913,84.3556304 13.5299348,84.3556304 C12.179087,84.3556304 10.7693478,84.1004348 9.29752174,83.5863913 C7.82843478,83.0755435 6.98706522,82.8198913 6.77341304,82.8198913 C6.26073913,82.8198913 5.91515217,82.9783043 5.73893478,83.2891957 C5.55997826,83.6005435 5.4431087,83.936087 5.38741304,84.2889783 L4.4268913,84.2889783 L3.12808696,74.9996739 L4.12969565,74.9996739" id="Fill-9" fill="#FFFFFE"></path>
                        <path d="M28.7124783,54.9040435 L53.3883913,54.9040435 L53.6216739,62.3193261 L52.5771522,62.3193261 C52.0663043,59.9910652 51.4162174,58.473587 50.6278043,57.7705435 C49.8389348,57.0670435 48.1799348,56.7141522 45.6512609,56.7141522 L43.2211957,56.7141522 L43.2211957,79.0485652 C43.2211957,80.7317609 43.4836957,81.773087 44.0100652,82.1757391 C44.5364348,82.5756522 45.6873261,82.845 47.4618261,82.9696304 L47.4618261,83.7808696 L34.7417609,83.7808696 L34.7417609,82.9696304 C36.5883913,82.8285652 37.737913,82.5231522 38.1962609,82.0561304 C38.6473043,81.5927609 38.8751087,80.4149348 38.8751087,78.5377174 L38.8751087,56.7141522 L36.4258696,56.7141522 C34.0113261,56.7141522 32.3669348,57.0633913 31.4922391,57.759587 C30.6202826,58.4557826 29.9606087,59.976913 29.5205217,62.3193261 L28.4568261,62.3193261 L28.7124783,54.9040435" id="Fill-10" fill="#FFFFFE"></path>
                        <path d="M73.299587,72.5696087 L68.2983913,60.5516739 L63.2748261,72.5696087 L73.299587,72.5696087 Z M54.504587,83.7808696 L54.504587,82.9696304 C55.6267174,82.845 56.4708261,82.4199783 57.0318913,81.7036957 C57.5929565,80.9846739 58.5534783,79.0211739 59.9171087,75.810913 L69.0064565,54.3922826 L69.878413,54.3922826 L80.7504783,79.1362174 C81.4754348,80.7733043 82.0556739,81.7867826 82.4866304,82.1757391 C82.9198696,82.5619565 83.6498478,82.8285652 84.672,82.9696304 L84.672,83.7808696 L73.5735,83.7808696 L73.5735,82.9696304 C74.8494783,82.8559565 75.6716739,82.719913 76.0414565,82.5532826 C76.4107826,82.392587 76.5933913,81.9949565 76.5933913,81.3562826 C76.5933913,81.1453696 76.524,80.7733043 76.3806522,80.2318696 C76.239587,79.6954565 76.0414565,79.1307391 75.7858043,78.5377174 L74.0373261,74.3386304 L62.5357174,74.3386304 C61.403087,77.195087 60.7256087,78.9376304 60.5060217,79.568087 C60.2836957,80.1926087 60.1755,80.6929565 60.1755,81.0622826 C60.1755,81.7981957 60.4726957,82.3035652 61.0693696,82.5866087 C61.4391522,82.7587174 62.1335217,82.887 63.1524783,82.9696304 L63.1524783,83.7808696 L54.504587,83.7808696 Z" id="Fill-11" fill="#FFFFFE"></path>
                        <path d="M85.5768261,54.9040435 L110.256848,54.9040435 L110.49013,62.3193261 L109.446065,62.3193261 C108.932478,59.9910652 108.282391,58.473587 107.493522,57.7705435 C106.705109,57.0670435 105.047478,56.7141522 102.519717,56.7141522 L100.090109,56.7141522 L100.090109,79.0485652 C100.090109,80.7317609 100.353978,81.773087 100.879435,82.1757391 C101.403522,82.5756522 102.553957,82.845 104.330739,82.9696304 L104.330739,83.7808696 L91.6088478,83.7808696 L91.6088478,82.9696304 C93.4554783,82.8285652 94.6054565,82.5231522 95.0610652,82.0561304 C95.5162174,81.5927609 95.7417391,80.4149348 95.7417391,78.5377174 L95.7417391,56.7141522 L93.2920435,56.7141522 C90.8756739,56.7141522 89.2317391,57.0633913 88.3570435,57.759587 C87.485087,58.4557826 86.8267826,59.976913 86.3880652,62.3193261 L85.3243696,62.3193261 L85.5768261,54.9040435" id="Fill-12" fill="#FFFFFE"></path>
                        <path d="M113.356174,82.9696304 C114.961761,82.8007174 116.003087,82.5117391 116.47787,82.1118261 C116.955848,81.7087174 117.19187,80.6870217 117.19187,79.0485652 L117.19187,59.6345217 C117.19187,58.0864565 116.95813,57.0752609 116.489283,56.5972826 C116.022261,56.1225 114.975457,55.8285 113.356174,55.7143696 L113.356174,54.9040435 L136.542457,54.9040435 L136.692196,61.1501739 L135.583761,61.1501739 C135.214891,59.2259348 134.659304,57.981 133.923848,57.4158261 C133.182,56.8506522 131.53487,56.5666957 128.977435,56.5666957 L123.03763,56.5666957 C122.395304,56.5666957 121.998587,56.669413 121.848848,56.8757609 C121.701848,57.0821087 121.626978,57.4687826 121.626978,58.0362391 L121.626978,67.776587 L128.357935,67.776587 C130.221457,67.776587 131.4075,67.5003913 131.918348,66.948913 C132.429196,66.3974348 132.842804,65.2812391 133.154152,63.599413 L134.178587,63.599413 L134.178587,73.6780435 L133.154152,73.6780435 C132.829565,71.988913 132.409565,70.8699783 131.898717,70.3203261 C131.38513,69.7761522 130.208217,69.5022391 128.357935,69.5022391 L121.626978,69.5022391 L121.626978,80.3035435 C121.626978,81.1732174 121.899065,81.6840652 122.445522,81.8397391 C122.99563,81.9976957 124.634543,82.0757609 127.36637,82.0757609 C130.32737,82.0757609 132.510457,81.7534565 133.91837,81.1033696 C135.329022,80.4564783 136.594957,78.8928913 137.71663,76.407587 L138.930978,76.407587 L136.948304,83.7808696 L113.356174,83.7808696 L113.356174,82.9696304" id="Fill-13" fill="#FFFFFE"></path>
                        <path d="M15.1158913,93.4230652 L15.1158913,93.7891957 C14.3548696,93.839413 13.8618261,93.9672391 13.6353913,94.1726739 C13.4107826,94.3758261 13.2966522,94.8391957 13.2966522,95.5696304 L13.2966522,101.907065 C13.2966522,102.948391 13.4386304,103.756435 13.7216739,104.33713 C14.2507826,105.394891 15.2546739,105.92537 16.7319783,105.92537 C18.3512609,105.92537 19.4396087,105.381196 19.9951957,104.29787 C20.3033478,103.689783 20.4585652,102.756652 20.4585652,101.490717 L20.4585652,96.3361304 C20.4585652,95.2555435 20.3284565,94.5812609 20.0700652,94.3059783 C19.8103043,94.0311522 19.3231957,93.8590435 18.5996087,93.7891957 L18.5996087,93.4230652 L23.1858261,93.4230652 L23.1858261,93.7891957 C22.4170435,93.8727391 21.9166957,94.059 21.6806739,94.3475217 C21.4446522,94.6337609 21.3282391,95.2975435 21.3282391,96.3361304 L21.3282391,101.490717 C21.3282391,102.859826 21.1200652,103.928543 20.6991522,104.692304 C19.9258043,106.108891 18.4539783,106.811478 16.2850435,106.811478 C14.1439565,106.811478 12.6885652,106.116652 11.9138478,104.723348 C11.4943043,103.976022 11.2833913,102.989935 11.2833913,101.762348 L11.2833913,95.5696304 C11.2833913,94.8478696 11.1738261,94.383587 10.9501304,94.1813478 C10.7278043,93.975913 10.2420652,93.8448913 9.49473913,93.7891957 L9.49473913,93.4230652 L15.1158913,93.4230652" id="Fill-14" fill="#FFFFFE"></path>
                        <path d="M24.6256957,106.167326 C25.4437826,106.083783 25.9687826,105.897522 26.2020652,105.609 C26.4353478,105.322761 26.5517609,104.656239 26.5517609,103.612174 L26.5517609,94.8807391 L26.2783043,94.5616304 C25.9879565,94.2228913 25.7423478,94.0087826 25.5396522,93.9284348 C25.335587,93.8476304 25.0315435,93.8006087 24.6256957,93.7891957 L24.6256957,93.4230652 L28.0071522,93.4230652 L35.6552609,102.903652 L35.6552609,96.3192391 C35.6552609,95.2363696 35.4941087,94.5283043 35.1722609,94.2032609 C34.9608913,93.9896087 34.4888478,93.8535652 33.758413,93.7891957 L33.758413,93.4230652 L38.4153913,93.4230652 L38.4153913,93.7891957 C37.6603043,93.8645217 37.1576739,94.0480435 36.9047609,94.3420435 C36.654587,94.6310217 36.5272174,95.2975435 36.5272174,96.3361304 L36.5272174,106.764 L36.1884783,106.764 L27.4209783,95.897413 L27.4209783,103.612174 C27.4209783,104.695043 27.5793913,105.40037 27.8948478,105.731348 C28.1016522,105.944543 28.5622826,106.089261 29.2803913,106.167326 L29.2803913,106.533457 L24.6256957,106.533457 L24.6256957,106.167326" id="Fill-15" fill="#FFFFFE"></path>
                        <path d="M39.8803696,106.167326 C40.688413,106.108891 41.2106739,105.989283 41.4494348,105.803478 C41.6881957,105.622696 41.8078043,105.147913 41.8078043,104.384152 L41.8078043,95.5696304 C41.8078043,94.8391957 41.6881957,94.3726304 41.4494348,94.1617174 C41.2106739,93.9508043 40.688413,93.8252609 39.8803696,93.7891957 L39.8803696,93.4230652 L45.7457609,93.4230652 L45.7457609,93.7891957 C44.9386304,93.8252609 44.4154565,93.9508043 44.1766957,94.1617174 C43.9393043,94.3726304 43.8196957,94.8391957 43.8196957,95.5696304 L43.8196957,104.384152 C43.8196957,105.147913 43.9393043,105.622696 44.1766957,105.803478 C44.4154565,105.989283 44.9386304,106.108891 45.7457609,106.167326 L45.7457609,106.533457 L39.8803696,106.533457 L39.8803696,106.167326" id="Fill-16" fill="#FFFFFE"></path>
                        <path d="M52.5525,93.4230652 L52.5525,93.7590652 C52.0553478,93.7672826 51.7193478,93.7978696 51.5385652,93.8563043 C51.2221957,93.9617609 51.0665217,94.175413 51.0665217,94.4977174 C51.0665217,94.6616087 51.1222174,94.889413 51.2331522,95.1866087 C51.3472826,95.4810652 51.5581957,95.9695435 51.8636087,96.6529565 L54.9656739,103.551 L57.7815,96.0836739 C57.9079565,95.7526957 58.001087,95.4751304 58.0677391,95.244587 C58.1316522,95.0140435 58.1649783,94.8282391 58.1649783,94.6835217 C58.1649783,94.2977609 57.9983478,94.0338913 57.6705652,93.8951087 C57.4774565,93.8175 57.1569783,93.7727609 56.7136957,93.7590652 L56.7136957,93.4230652 L60.7671522,93.4230652 L60.7671522,93.7590652 C60.3476087,93.8175 60.0394565,93.9284348 59.8367609,94.1005435 C59.5354565,94.3507174 59.2341522,94.8556304 58.9396957,95.6193913 L54.5488696,106.764 L54.2503043,106.764 L49.3531957,95.8723043 C48.9423261,94.9478478 48.6090652,94.3758261 48.3643696,94.1480217 C48.1146522,93.9197609 47.7494348,93.7923913 47.2732826,93.7590652 L47.2732826,93.4230652 L52.5525,93.4230652" id="Fill-17" fill="#FFFFFE"></path>
                        <path d="M62.2818913,106.167326 C63.0109565,106.089261 63.483,105.958696 63.6966522,105.775174 C63.9148696,105.592109 64.0216957,105.131022 64.0216957,104.384152 L64.0216957,95.5696304 C64.0216957,94.8643043 63.9148696,94.4059565 63.702587,94.1923043 C63.4884783,93.9727174 63.0164348,93.839413 62.2818913,93.7891957 L62.2818913,93.4230652 L72.8083696,93.4230652 L72.8782174,96.2585217 L72.3733043,96.2585217 C72.2057609,95.3838261 71.9542174,94.8168261 71.6200435,94.5616304 C71.283587,94.3059783 70.5339783,94.175413 69.3730435,94.175413 L66.6736304,94.175413 C66.3851087,94.175413 66.2047826,94.2228913 66.1376739,94.3173913 C66.0687391,94.4118913 66.033587,94.5867391 66.033587,94.8419348 L66.033587,99.266087 L69.0941087,99.266087 C69.9368478,99.266087 70.4787391,99.141 70.7088261,98.8908261 C70.9421087,98.6411087 71.127913,98.133 71.2694348,97.3719783 L71.7332609,97.3719783 L71.7332609,101.94587 L71.2694348,101.94587 C71.1196957,101.17937 70.9306957,100.671261 70.6987826,100.421087 C70.4668696,100.174109 69.9313696,100.049022 69.0941087,100.049022 L66.033587,100.049022 L66.033587,104.956174 C66.033587,105.350609 66.1600435,105.580696 66.4088478,105.653283 C66.6571957,105.722674 67.4017826,105.758739 68.6426087,105.758739 C69.9847826,105.758739 70.9781739,105.611739 71.6173043,105.316826 C72.2555217,105.025565 72.8334783,104.314761 73.341587,103.18487 L73.8944348,103.18487 L72.9932609,106.533457 L62.2818913,106.533457 L62.2818913,106.167326" id="Fill-18" fill="#FFFFFE"></path>
                        <path d="M82.0333043,99.2939348 C83.085587,98.8634348 83.6083043,98.0521957 83.6083043,96.8611304 C83.6083043,95.7138913 83.139,94.9336957 82.1976522,94.5141522 C81.6945652,94.2895435 81.0248478,94.175413 80.1930652,94.175413 C79.6324565,94.175413 79.2873261,94.217413 79.1622391,94.2977609 C79.0376087,94.3781087 78.9750652,94.5671087 78.9750652,94.8615652 L78.9750652,99.740413 C80.4007826,99.687913 81.4174565,99.540913 82.0333043,99.2939348 Z M75.2580652,106.167326 C76.0195435,106.095196 76.4938696,105.947739 76.6810435,105.722674 C76.8691304,105.497609 76.9636304,104.975348 76.9636304,104.153152 L76.9636304,95.5696304 C76.9636304,94.8725217 76.8572609,94.416913 76.6472609,94.2005217 C76.4358913,93.9836739 75.9748043,93.8448913 75.2580652,93.7891957 L75.2580652,93.4230652 L80.745,93.4230652 C81.8863043,93.4230652 82.8386087,93.564587 83.600087,93.8563043 C85.0436087,94.4032174 85.7685652,95.4139565 85.7685652,96.8803043 C85.7685652,97.8663913 85.4467174,98.6242174 84.8048478,99.1496739 C84.1634348,99.6796957 83.2914783,100.026652 82.1885217,100.193739 L86.2716522,105.225522 C86.520913,105.530935 86.7742826,105.756 87.024,105.897522 C87.2764565,106.039043 87.5992174,106.128065 87.9931957,106.167326 L87.9931957,106.533457 L84.8021087,106.533457 L79.8442826,100.427022 L78.9750652,100.474043 L78.9750652,104.381413 C78.9750652,105.114587 79.0846304,105.578413 79.3087826,105.772435 C79.5288261,105.972848 80.0163913,106.102957 80.7646304,106.167326 L80.7646304,106.533457 L75.2580652,106.533457 L75.2580652,106.167326 Z" id="Fill-19" fill="#FFFFFE"></path>
                        <path d="M89.2961087,102.545739 C89.6284565,103.43687 90.0206087,104.14813 90.4730217,104.672674 C91.2591522,105.598043 92.2338261,106.058674 93.4002391,106.058674 C94.0329783,106.058674 94.5780652,105.858717 95.0391522,105.458804 C95.4997826,105.058891 95.7298696,104.500565 95.7298696,103.787022 C95.7298696,103.14013 95.4997826,102.57587 95.0355,102.101087 C94.7305435,101.798413 94.0946087,101.343261 93.1226739,100.737913 L91.4312609,99.6828913 C90.9231522,99.3578478 90.5173043,99.0328043 90.215087,98.7050217 C89.6535652,98.0773043 89.3709783,97.388413 89.3709783,96.6360652 C89.3709783,95.6335435 89.7042391,94.8003913 90.3675652,94.1393478 C91.0336304,93.4728261 91.9147174,93.1423043 93.0085435,93.1423043 C93.4618696,93.1423043 94.005587,93.2536957 94.6415217,93.4755652 C95.2742609,93.6951522 95.6381087,93.8088261 95.7298696,93.8088261 C95.9741087,93.8088261 96.1439348,93.7481087 96.2384348,93.6339783 C96.3301957,93.5175652 96.4023261,93.3532174 96.4548261,93.1423043 L96.8606739,93.1423043 L97.2966522,97.3610217 L96.821413,97.3610217 C96.4995652,96.0891522 95.9832391,95.2030435 95.2692391,94.6976739 C94.5556957,94.1977826 93.8531087,93.9421304 93.156,93.9421304 C92.6145652,93.9421304 92.1420652,94.1032826 91.7389565,94.4228478 C91.3340217,94.7419565 91.1308696,95.1866087 91.1308696,95.7526957 C91.1308696,96.264 91.287,96.6995217 91.5956087,97.0583478 C91.905587,97.4276739 92.3863043,97.8106957 93.0363913,98.2106087 L94.7748261,99.2857174 C95.8663696,99.9572609 96.6351522,100.574022 97.0825435,101.131891 C97.5212609,101.70163 97.7431304,102.370435 97.7431304,103.145609 C97.7431304,104.186935 97.3491522,105.053413 96.5662174,105.747783 C95.7828261,106.44763 94.7803043,106.791848 93.5613913,106.791848 C92.9473696,106.791848 92.3086957,106.678174 91.6389783,106.44763 C90.972913,106.214348 90.5898913,106.097478 90.4926522,106.097478 C90.2625652,106.097478 90.1036957,106.170065 90.0233478,106.311587 C89.9425435,106.453109 89.889587,106.603304 89.8649348,106.764 L89.4289565,106.764 L88.8400435,102.545739 L89.2961087,102.545739" id="Fill-20" fill="#FFFFFE"></path>
                        <path d="M99.1405435,106.167326 C99.9458478,106.108891 100.468109,105.989283 100.706413,105.803478 C100.945174,105.622696 101.064783,105.147913 101.064783,104.384152 L101.064783,95.5696304 C101.064783,94.8391957 100.945174,94.3726304 100.706413,94.1617174 C100.468109,93.9508043 99.9458478,93.8252609 99.1405435,93.7891957 L99.1405435,93.4230652 L105.003196,93.4230652 L105.003196,93.7891957 C104.194239,93.8252609 103.672891,93.9508043 103.433674,94.1617174 C103.194913,94.3726304 103.078043,94.8391957 103.078043,95.5696304 L103.078043,104.384152 C103.078043,105.147913 103.194913,105.622696 103.433674,105.803478 C103.672891,105.989283 104.194239,106.108891 105.003196,106.167326 L105.003196,106.533457 L99.1405435,106.533457 L99.1405435,106.167326" id="Fill-21" fill="#FFFFFE"></path>
                        <path d="M106.571348,93.4230652 L117.780326,93.4230652 L117.885783,96.789 L117.411,96.789 C117.180457,95.7307826 116.883261,95.0391522 116.524891,94.7223261 C116.169261,94.4032174 115.413717,94.2448043 114.267391,94.2448043 L113.164435,94.2448043 L113.164435,104.384152 C113.164435,105.147913 113.281304,105.622696 113.520065,105.803478 C113.758826,105.989283 114.281543,106.108891 115.089587,106.167326 L115.089587,106.533457 L109.313217,106.533457 L109.313217,106.167326 C110.151391,106.102957 110.674109,105.964174 110.879087,105.750522 C111.084978,105.539609 111.190435,105.00913 111.190435,104.153152 L111.190435,94.2448043 L110.076522,94.2448043 C108.979957,94.2448043 108.23263,94.4032174 107.835913,94.7173043 C107.441022,95.0336739 107.141087,95.7253043 106.941587,96.789 L106.45813,96.789 L106.571348,93.4230652" id="Fill-22" fill="#FFFFFE"></path>
                        <path d="M124.647783,93.4230652 L124.647783,93.7891957 C124.183957,93.7755 123.837457,93.8115652 123.603717,93.8951087 C123.370891,93.9786522 123.256761,94.1617174 123.256761,94.4365435 C123.256761,94.520087 123.276391,94.6255435 123.312,94.7506304 C123.354,94.878 123.437087,95.0423478 123.573587,95.2505217 L126.491674,99.5299565 L129.336261,95.183413 C129.451761,94.9948696 129.527543,94.8391957 129.563609,94.7173043 C129.60287,94.5949565 129.618848,94.5059348 129.618848,94.4479565 C129.618848,94.1644565 129.46637,93.975913 129.164152,93.8836957 C128.982913,93.8252609 128.674304,93.7951304 128.233304,93.7891957 L128.233304,93.4230652 L132.562957,93.4230652 L132.562957,93.7891957 C132.162587,93.8088261 131.80787,93.9256957 131.493783,94.1480217 C131.001652,94.4895 130.452457,95.1222391 129.840717,96.0526304 L126.911674,100.523804 L126.911674,104.378674 C126.911674,105.144717 127.036304,105.622696 127.286022,105.811239 C127.533,106.002978 128.091326,106.122587 128.955522,106.167326 L128.955522,106.533457 L122.906609,106.533457 L122.906609,106.167326 C123.803674,106.113913 124.361543,105.981065 124.575652,105.764217 C124.792043,105.547826 124.901152,105.00913 124.901152,104.14813 L124.901152,100.710065 L122.307196,96.9026739 C121.41013,95.5942826 120.782413,94.7561087 120.418565,94.383587 C120.060196,94.0119783 119.618739,93.8143043 119.105152,93.7891957 L119.105152,93.4230652 L124.647783,93.4230652" id="Fill-23" fill="#FFFFFE"></path>
                        <path d="M11.2126304,132.107804 C11.5541087,132.082696 11.7942391,132.032935 11.9302826,131.960804 C12.1653913,131.841196 12.3274565,131.602891 12.4192174,131.255478 L14.1046957,125.170957 C13.2245217,125.170957 12.641087,125.237152 12.3580435,125.373652 C12.0736304,125.5065 11.7417391,125.909609 11.3664783,126.587087 L11.1596739,126.547826 L11.6344565,124.773326 L17.7765,124.773326 L17.273413,126.648261 L17.0679783,126.625891 L17.0944565,126.223239 C17.0944565,125.870348 17.0154783,125.609674 16.8570652,125.43437 C16.695913,125.262261 16.379087,125.170957 15.9070435,125.170957 L15.2656304,125.170957 L13.6495435,130.910804 C13.6134783,131.032696 13.5828913,131.141348 13.566,131.238587 C13.5326739,131.388783 13.5135,131.502457 13.5135,131.588283 C13.5135,131.816087 13.5828913,131.955326 13.7216739,132.010565 C13.8618261,132.063522 14.1325435,132.096848 14.5379348,132.107804 L14.5379348,132.28813 L11.2126304,132.28813 L11.2126304,132.107804" id="Fill-24" fill="#FFFFFE"></path>
                        <path d="M18.2791304,124.748674 C18.522,124.715348 18.7164783,124.6875 18.8648478,124.66787 C19.014587,124.6455 19.1451522,124.629065 19.2538043,124.609435 C19.6993696,124.523609 19.9367609,124.476587 19.9728261,124.470652 C20.0061522,124.459696 20.0312609,124.456957 20.0504348,124.456957 C20.0951739,124.479326 20.117087,124.509457 20.117087,124.545978 L18.7301739,129.564065 C19.1926304,128.869696 19.5701739,128.361587 19.8673696,128.042478 C20.3836957,127.49237 20.8561957,127.214348 21.2862391,127.214348 C21.4642826,127.214348 21.6363913,127.270043 21.8016522,127.383717 C21.9641739,127.500587 22.05,127.706022 22.05,128.003217 C22.05,128.072609 22.0390435,128.16437 22.0221522,128.275304 C22.0002391,128.386696 21.9778696,128.489413 21.9527609,128.575696 L21.2086304,131.255478 C21.1862609,131.330348 21.167087,131.402478 21.1533913,131.47187 C21.1392391,131.541261 21.1310217,131.602891 21.1310217,131.660413 C21.1310217,131.724783 21.1474565,131.771804 21.1780435,131.802391 C21.2058913,131.835717 21.2488043,131.852152 21.3058696,131.852152 C21.420913,131.852152 21.5587826,131.771804 21.7194783,131.607913 C21.8153478,131.508391 22.0002391,131.285609 22.2668478,130.94687 L22.4138478,131.080174 C22.1504348,131.47187 21.924913,131.757652 21.7391087,131.938435 C21.408587,132.258 21.0780652,132.416413 20.7448043,132.416413 C20.5918696,132.416413 20.4672391,132.368935 20.3645217,132.274435 C20.2631739,132.182674 20.2143261,132.04663 20.2143261,131.869043 C20.2143261,131.822022 20.2156957,131.774543 20.2211739,131.733 C20.2284783,131.685522 20.2380652,131.6385 20.2531304,131.585543 L21.105913,128.303152 C21.1141304,128.275304 21.1228043,128.244717 21.1282826,128.211848 C21.1337609,128.180804 21.1392391,128.147478 21.1392391,128.114609 C21.1392391,128.022848 21.105913,127.947978 21.0529565,127.895022 C20.9917826,127.844804 20.916913,127.819696 20.8210435,127.819696 C20.5754348,127.819696 20.2604348,128.020109 19.8787826,128.420022 C19.5007826,128.822674 19.1830435,129.230804 18.9205435,129.649891 C18.7411304,129.944804 18.6064565,130.22237 18.5151522,130.483043 C18.4261304,130.746913 18.2512826,131.346783 17.987413,132.28813 L17.1236739,132.28813 L19.0123043,125.467696 C19.0232609,125.420217 19.0314783,125.37913 19.0342174,125.343065 C19.0369565,125.309283 19.0396957,125.279152 19.0396957,125.245826 C19.0396957,125.084674 18.9871957,124.987435 18.8812826,124.954109 C18.7785652,124.920783 18.5758696,124.912109 18.2791304,124.929 L18.2791304,124.748674" id="Fill-25" fill="#FFFFFE"></path>
                        <path d="M25.977,129.136304 C26.4266739,128.73913 26.6517391,128.341957 26.6517391,127.950717 C26.6517391,127.806 26.6197826,127.695065 26.5517609,127.611522 C26.4796304,127.528435 26.3851304,127.486891 26.2518261,127.486891 C26.0103261,127.486891 25.7715652,127.58687 25.5355435,127.797783 C25.3022609,128.003217 25.0899783,128.2365 24.9023478,128.500826 C24.7051304,128.806239 24.5453478,129.100239 24.4303043,129.380543 C24.3636522,129.528 24.297,129.700109 24.2271522,129.891391 C24.9438913,129.786391 25.5282391,129.530739 25.977,129.136304 Z M24.1582174,128.378022 C24.8968696,127.603761 25.662913,127.214348 26.4545217,127.214348 C26.7462391,127.214348 26.9795217,127.281457 27.153,127.4175 C27.3251087,127.553087 27.4100217,127.7535 27.4100217,128.01737 C27.4100217,128.556065 27.0931957,129.016696 26.4627391,129.400174 C25.83,129.783196 25.167587,130.016935 24.4691087,130.102761 L24.1495435,130.141565 C24.0997826,130.2945 24.065087,130.416848 24.0468261,130.505413 C24.0290217,130.599913 24.0189783,130.716326 24.0189783,130.852826 C24.0189783,131.180609 24.1276304,131.433065 24.3412826,131.616587 C24.5590435,131.799652 24.8133261,131.888217 25.1091522,131.888217 C25.3940217,131.888217 25.6898478,131.796913 26.0048478,131.610652 C26.1838043,131.499717 26.4463043,131.307978 26.786413,131.030413 L26.9325,131.158239 C26.7645,131.369152 26.523913,131.588283 26.2075435,131.816087 C25.6492174,132.216 25.0881522,132.416413 24.5275435,132.416413 C24.129,132.416413 23.7802174,132.274435 23.4816522,131.99687 C23.1803478,131.716565 23.0319783,131.313913 23.0319783,130.791652 C23.0319783,129.961239 23.405413,129.158674 24.1582174,128.378022 Z" id="Fill-26" fill="#FFFFFE"></path>
                        <path d="M33.0932609,127.206587 C33.1028478,127.225761 33.1142609,127.247674 33.1142609,127.272783 C33.1028478,127.311587 33.096,127.339891 33.0891522,127.361804 L32.528087,129.536217 L32.6422174,129.294717 C32.9115652,128.767435 33.2279348,128.280783 33.5863043,127.844804 C33.9469565,127.408826 34.2888913,127.186957 34.6134783,127.186957 C34.7887826,127.186957 34.9248261,127.245391 35.0193261,127.361804 C35.1161087,127.480957 35.163587,127.611522 35.163587,127.761717 C35.163587,127.928348 35.1161087,128.06713 35.0220652,128.180804 C34.9303043,128.286717 34.7983696,128.341957 34.6303696,128.341957 C34.5162391,128.341957 34.430413,128.322783 34.3724348,128.275304 C34.314,128.231022 34.2678913,128.180804 34.2331957,128.117348 L34.1665435,127.995 C34.1528478,127.97263 34.134587,127.953 34.1140435,127.942043 C34.094413,127.928348 34.0693043,127.92287 34.0391739,127.92287 C33.8917174,127.92287 33.6821739,128.125565 33.4055217,128.536435 C33.126587,128.944565 32.8837174,129.386478 32.6627609,129.864 C32.5321957,130.155717 32.3865652,130.536457 32.225413,131.016261 C32.1226957,131.313913 31.9866522,131.738478 31.8145435,132.28813 L30.9494348,132.28813 L31.889413,128.897543 C31.9423696,128.703065 31.983913,128.528217 32.0145,128.375283 C32.0478261,128.219609 32.0628913,128.097717 32.0628913,127.997739 C32.0628913,127.886804 32.0336739,127.800522 31.9798043,127.739804 C31.9254783,127.68137 31.8255,127.650326 31.6867174,127.650326 C31.6410652,127.650326 31.584,127.653522 31.5159783,127.661739 C31.4493261,127.669957 31.3676087,127.68137 31.2726522,127.692326 L31.2726522,127.512 L31.499087,127.467261 C31.794913,127.408826 32.118587,127.339891 32.466913,127.272783 C32.8170652,127.20887 33.0033261,127.175543 33.0197609,127.175543 C33.0558261,127.175543 33.0781957,127.184217 33.0932609,127.206587" id="Fill-27" fill="#FFFFFE"></path>
                        <path d="M37.1964783,125.787261 C37.0910217,125.668109 37.032587,125.52613 37.032587,125.356761 C37.032587,125.181913 37.0910217,125.034913 37.1964783,124.918043 C37.3046739,124.795696 37.4366087,124.734978 37.5881739,124.734978 C37.7433913,124.734978 37.8739565,124.795696 37.9867174,124.918043 C38.094913,125.034913 38.1515217,125.181913 38.1515217,125.356761 C38.1515217,125.52887 38.094913,125.67313 37.9867174,125.792739 C37.8739565,125.909609 37.7433913,125.967587 37.5881739,125.967587 C37.4366087,125.967587 37.3046739,125.909609 37.1964783,125.787261 Z M37.7324348,127.195174 C37.7548043,127.20887 37.7602826,127.223022 37.7575435,127.242652 L36.6326739,131.255478 C36.5824565,131.466391 36.5518696,131.596957 36.5518696,131.635761 C36.5518696,131.691457 36.5660217,131.741217 36.5911304,131.785957 C36.6080217,131.829783 36.654587,131.852152 36.729913,131.852152 C36.8577391,131.852152 37.0284783,131.741217 37.2380217,131.519348 C37.3631087,131.388783 37.5142174,131.199783 37.6936304,130.955543 L37.8433696,131.080174 L37.7853913,131.158239 C37.5046304,131.552217 37.2713478,131.841196 37.0882826,132.010565 C36.7965652,132.279913 36.5158043,132.416413 36.2409783,132.416413 C36.077087,132.416413 35.9465217,132.346565 35.8396957,132.213261 C35.7301304,132.079957 35.6771739,131.919261 35.6771739,131.735283 C35.6771739,131.624348 35.6858478,131.533043 35.6995435,131.4495 C35.7136957,131.369152 35.7438261,131.252739 35.7844565,131.094326 L36.5856522,128.200435 C36.5993478,128.153413 36.6080217,128.111413 36.6162391,128.075348 C36.6217174,128.039739 36.6244565,128.000478 36.6244565,127.961674 C36.6244565,127.82837 36.5769783,127.744826 36.4747174,127.714696 C36.3756522,127.68137 36.1802609,127.664935 35.8844348,127.664935 L35.8844348,127.486891 C36.1939565,127.448087 36.413087,127.4175 36.549587,127.39787 C36.6851739,127.375957 36.8203043,127.356326 36.9563478,127.331217 C37.1353043,127.30337 37.3046739,127.267304 37.463087,127.231239 C37.6215,127.195174 37.7128043,127.181478 37.7324348,127.195174 Z" id="Fill-28" fill="#FFFFFE"></path>
                        <path d="M38.7253696,130.605391 L38.913913,130.605391 C38.9974565,131.066478 39.0919565,131.405217 39.2083696,131.619326 C39.4142609,132.013304 39.7251522,132.210978 40.1332826,132.210978 C40.3638261,132.210978 40.5578478,132.130174 40.7135217,131.969022 C40.8691957,131.80787 40.9468043,131.591478 40.9468043,131.327609 C40.9468043,131.160978 40.9303696,131.027674 40.8883696,130.921761 C40.8495652,130.816761 40.7998043,130.722261 40.7413696,130.635978 L40.2720652,129.941609 C39.9858261,129.522522 39.8082391,129.242217 39.7388478,129.0975 C39.627913,128.883391 39.5749565,128.670196 39.5749565,128.453348 C39.5749565,128.128304 39.6913696,127.842065 39.9278478,127.589152 C40.1611304,127.337152 40.4971304,127.214348 40.9303696,127.214348 C41.1106957,127.214348 41.3248043,127.247674 41.5635652,127.317522 C41.799587,127.386913 41.9607391,127.422978 42.0465652,127.422978 C42.1410652,127.422978 42.2131957,127.406087 42.2551957,127.364543 C42.3022174,127.328478 42.3437609,127.278717 42.3798261,127.214348 L42.5409783,127.214348 L42.3131739,128.808522 L42.1241739,128.808522 C42.074413,128.444674 42.0022826,128.175783 41.9023043,127.992261 C41.7242609,127.653522 41.4384783,127.486891 41.0440435,127.486891 C40.8828913,127.486891 40.7358913,127.539391 40.6053261,127.63937 C40.4747609,127.742087 40.4108478,127.892283 40.4108478,128.092239 C40.4108478,128.244717 40.4386957,128.378022 40.4971304,128.49763 C40.5555652,128.6145 40.6911522,128.819935 40.8943043,129.113935 L41.2942174,129.691891 C41.4996522,129.985891 41.643913,130.227848 41.7329348,130.410913 C41.8192174,130.596717 41.8603043,130.79987 41.8603043,131.016261 C41.8603043,131.413435 41.6881957,131.754913 41.3439783,132.030196 C41.0025,132.302283 40.593913,132.441065 40.1191304,132.441065 C39.9666522,132.441065 39.7470652,132.407739 39.4640217,132.346565 C39.1805217,132.283109 39.0166304,132.249783 38.9723478,132.249783 C38.8947391,132.249783 38.8390435,132.266217 38.8057174,132.299543 C38.7696522,132.33013 38.7390652,132.377152 38.7084783,132.441065 L38.5226739,132.441065 L38.7253696,130.605391" id="Fill-29" fill="#FFFFFE"></path>
                        <path d="M44.8710652,125.787261 C44.7596739,125.668109 44.7071739,125.52613 44.7071739,125.356761 C44.7071739,125.181913 44.7596739,125.034913 44.8710652,124.918043 C44.9792609,124.795696 45.1084565,124.734978 45.2627609,124.734978 C45.4166087,124.734978 45.549913,124.795696 45.6594783,124.918043 C45.7708696,125.034913 45.8261087,125.181913 45.8261087,125.356761 C45.8261087,125.52887 45.7708696,125.67313 45.6594783,125.792739 C45.549913,125.909609 45.4166087,125.967587 45.2627609,125.967587 C45.1084565,125.967587 44.9792609,125.909609 44.8710652,125.787261 Z M45.4070217,127.195174 C45.4275652,127.20887 45.4357826,127.223022 45.4321304,127.242652 L44.3072609,131.255478 C44.2547609,131.466391 44.2264565,131.596957 44.2264565,131.635761 C44.2264565,131.691457 44.2406087,131.741217 44.2629783,131.785957 C44.279413,131.829783 44.3264348,131.852152 44.4031304,131.852152 C44.5309565,131.852152 44.7016957,131.741217 44.9126087,131.519348 C45.0358696,131.388783 45.1874348,131.199783 45.3677609,130.955543 L45.5152174,131.080174 L45.4595217,131.158239 C45.1764783,131.552217 44.9459348,131.841196 44.7596739,132.010565 C44.4720652,132.279913 44.1903913,132.416413 43.9155652,132.416413 C43.7516739,132.416413 43.6183696,132.346565 43.512913,132.213261 C43.4047174,132.079957 43.3517609,131.919261 43.3517609,131.735283 C43.3517609,131.624348 43.3599783,131.533043 43.3741304,131.4495 C43.3896522,131.369152 43.418413,131.252739 43.4572174,131.094326 L44.2597826,128.200435 C44.2711957,128.153413 44.279413,128.111413 44.2876304,128.075348 C44.2931087,128.039739 44.2990435,128.000478 44.2990435,127.961674 C44.2990435,127.82837 44.2488261,127.744826 44.1488478,127.714696 C44.0516087,127.68137 43.8516522,127.664935 43.5571957,127.664935 L43.5571957,127.486891 C43.8653478,127.448087 44.0876739,127.4175 44.2237174,127.39787 C44.3556522,127.375957 44.4944348,127.356326 44.6323043,127.331217 C44.8098913,127.30337 44.9778913,127.267304 45.1376739,127.231239 C45.2956304,127.195174 45.3873913,127.181478 45.4070217,127.195174 Z" id="Fill-30" fill="#FFFFFE"></path>
                        <g id="Group-34" transform="translate(46.108696, 126.913043)">
                            <mask id="mask-4" fill="white">
                                <use xlink:href="#path-3"></use>
                            </mask>
                            <g id="Clip-32"></g>
                            <path d="M0.100891304,5.37508696 L1.05867391,1.9151087 C1.14221739,1.61791304 1.18923913,1.43986957 1.2033913,1.37641304 C1.21434783,1.31523913 1.22256522,1.24858696 1.22256522,1.17645652 C1.22256522,1.06826087 1.18923913,0.981978261 1.12852174,0.920804348 C1.06734783,0.856891304 0.94773913,0.823565217 0.767413043,0.823565217 C0.722673913,0.823565217 0.681130435,0.829043478 0.639586957,0.834521739 C0.593934783,0.840456522 0.546456522,0.845934783 0.493956522,0.854152174 L0.493956522,0.673826087 C0.734086957,0.63776087 0.906195652,0.609913043 1.01165217,0.590282609 C1.11163043,0.573847826 1.22256522,0.551478261 1.34217391,0.524086957 L2.33921739,0.301304348 C2.36113043,0.315456522 2.37254348,0.332347826 2.3835,0.351521739 L1.64895652,2.76515217 C2.10867391,2.06758696 2.48895652,1.54578261 2.80030435,1.20430435 C3.34173913,0.603978261 3.82747826,0.301304348 4.2566087,0.301304348 C4.42186957,0.301304348 4.56613043,0.332347826 4.683,0.395804348 C4.91354348,0.521347826 5.02721739,0.743217391 5.02721739,1.06506522 C5.02721739,1.15408696 5.019,1.24858696 5.0021087,1.34582609 C4.98293478,1.44306522 4.95782609,1.54852174 4.92723913,1.66265217 L4.18995652,4.34243478 C4.17626087,4.40086957 4.15936957,4.46980435 4.13836957,4.54786957 C4.11919565,4.62821739 4.11097826,4.68391304 4.11097826,4.71723913 C4.11097826,4.77247826 4.12467391,4.82543478 4.14978261,4.87291304 C4.17626087,4.91673913 4.22054348,4.9391087 4.27623913,4.9391087 C4.37073913,4.9391087 4.48030435,4.88067391 4.60265217,4.767 C4.72591304,4.65058696 4.92723913,4.4058913 5.20480435,4.03382609 L5.36595652,4.18128261 C5.06328261,4.59763043 4.82452174,4.88934783 4.64693478,5.05871739 C4.347,5.35545652 4.05802174,5.50336957 3.78182609,5.50336957 C3.65673913,5.50336957 3.53621739,5.45863043 3.41934783,5.37508696 C3.30293478,5.292 3.2445,5.13952174 3.2445,4.91947826 C3.2445,4.85602174 3.24997826,4.7838913 3.25819565,4.7145 C3.2696087,4.64236957 3.28056522,4.58119565 3.29563043,4.52823913 L4.01647826,1.80691304 C4.05528261,1.65991304 4.08313043,1.53436957 4.09408696,1.43986957 C4.10778261,1.34263043 4.11371739,1.27643478 4.11371739,1.23443478 C4.11371739,1.14586957 4.09134783,1.06826087 4.04980435,1.00115217 C4.00826087,0.937695652 3.93019565,0.906652174 3.82063043,0.906652174 C3.53621739,0.906652174 3.17647826,1.15682609 2.74323913,1.66767391 C2.48895652,1.96806522 2.23102174,2.32597826 1.9698913,2.74552174 C1.77267391,3.06782609 1.61563043,3.38145652 1.50195652,3.6896087 C1.38645652,3.99776087 1.20886957,4.55882609 0.967369565,5.37508696 L0.100891304,5.37508696" id="Fill-31" fill="#FFFFFE" mask="url(#mask-4)"></path>
                            <path d="M7.74626087,3.06463043 C7.86541304,3.29517391 8.08363043,3.40930435 8.3958913,3.40930435 C8.7318913,3.40930435 9.03319565,3.19245652 9.29569565,2.76195652 C9.56230435,2.32917391 9.69423913,1.8543913 9.69423913,1.33167391 C9.69423913,1.08195652 9.63854348,0.887478261 9.53034783,0.745956522 C9.42078261,0.603978261 9.25963043,0.535043478 9.04186957,0.535043478 C8.62232609,0.535043478 8.28221739,0.756913043 8.02382609,1.20430435 C7.76863043,1.65671739 7.64034783,2.08995652 7.64034783,2.50356522 C7.64034783,2.73684783 7.67413043,2.92584783 7.74626087,3.06463043 Z M8.95695652,7.21121739 C9.25141304,6.99984783 9.39841304,6.74191304 9.39841304,6.44745652 C9.39841304,6.2223913 9.32080435,6.03065217 9.1665,5.87817391 C9.08478261,5.79463043 8.94873913,5.7056087 8.76521739,5.61430435 C8.61136957,5.53943478 8.3516087,5.43123913 7.98502174,5.28926087 C7.61843478,5.15047826 7.40752174,5.08108696 7.35182609,5.08108696 C7.25458696,5.08108696 7.06558696,5.20845652 6.78802174,5.46958696 C6.50726087,5.73071739 6.3671087,6.02791304 6.3671087,6.35569565 C6.3671087,6.85558696 6.58258696,7.20026087 7.01445652,7.38606522 C7.24043478,7.48330435 7.51708696,7.53306522 7.84578261,7.53306522 C8.29317391,7.53306522 8.6625,7.42486957 8.95695652,7.21121739 Z M6.06306522,5.69465217 C6.27671739,5.44219565 6.61865217,5.19202174 7.08795652,4.94504348 C6.99208696,4.88386957 6.91584783,4.82223913 6.85741304,4.75330435 C6.79623913,4.68665217 6.76565217,4.60036957 6.76565217,4.48943478 C6.76565217,4.33969565 6.87293478,4.16165217 7.08795652,3.96169565 C7.20436957,3.85076087 7.39884783,3.69828261 7.66819565,3.51156522 C7.42806522,3.423 7.224,3.29836957 7.05326087,3.13128261 C6.84508696,2.91215217 6.741,2.62317391 6.741,2.27347826 C6.741,1.70647826 6.9615,1.23763043 7.40478261,0.862826087 C7.84578261,0.487565217 8.3958913,0.301304348 9.04552174,0.301304348 C9.38745652,0.301304348 9.67597826,0.351521739 9.912,0.45423913 C10.1493913,0.560152174 10.2872609,0.645978261 10.3288043,0.715369565 L11.0811522,0.715369565 L11.0811522,1.16823913 L10.5150652,1.16823913 C10.5342391,1.25132609 10.5511304,1.32619565 10.562087,1.39330435 C10.5730435,1.4595 10.5785217,1.55673913 10.5785217,1.68182609 C10.5785217,2.28717391 10.3456957,2.76743478 9.87319565,3.11758696 C9.40115217,3.46454348 8.89578261,3.63984783 8.3516087,3.63984783 C8.29317391,3.63984783 8.24341304,3.6371087 8.19319565,3.63117391 C8.1416087,3.62569565 8.08363043,3.61747826 8.01286957,3.60104348 C7.95580435,3.60104348 7.87956522,3.65628261 7.78232609,3.76721739 C7.68234783,3.87541304 7.6293913,3.97265217 7.6293913,4.06213043 C7.6293913,4.18676087 8.04345652,4.4058913 8.87067391,4.71723913 C9.69286957,5.03086957 10.1051087,5.48373913 10.1051087,6.08041304 C10.1051087,6.52780435 9.89830435,6.9195 9.48469565,7.2555 C9.07245652,7.59423913 8.45158696,7.76086957 7.61843478,7.76086957 C7.0391087,7.76086957 6.57984783,7.63897826 6.24384783,7.39428261 C5.90647826,7.14684783 5.73528261,6.84736957 5.73528261,6.49173913 C5.73528261,6.21371739 5.84667391,5.9471087 6.06306522,5.69465217 Z" id="Fill-33" fill="#FFFFFE" mask="url(#mask-4)"></path>
                        </g>
                        <path d="M61.131,129.98863 C61.3277609,130.505413 61.5528261,130.919022 61.8139565,131.22763 C62.2691087,131.763587 62.8333696,132.030196 63.5081087,132.030196 C63.8733261,132.030196 64.1883261,131.913326 64.4563043,131.680043 C64.7242826,131.447217 64.8562174,131.124913 64.8562174,130.708109 C64.8562174,130.330109 64.7215435,130.005522 64.4508261,129.727957 C64.2759783,129.549913 63.9066522,129.286043 63.3428478,128.933609 L62.3613261,128.322783 C62.0641304,128.131043 61.8303913,127.942043 61.6555435,127.7535 C61.3336957,127.386913 61.1698043,126.983804 61.1698043,126.547826 C61.1698043,125.967587 61.3638261,125.484587 61.7486739,125.096087 C62.1344348,124.712609 62.6457391,124.52087 63.2816739,124.52087 C63.5414348,124.52087 63.8578043,124.579304 64.2298696,124.703935 C64.596913,124.829478 64.8064565,124.890196 64.8589565,124.890196 C65.0023043,124.890196 65.0995435,124.85687 65.1547826,124.792957 C65.2072826,124.726304 65.2492826,124.637739 65.2798696,124.52087 L65.5099565,124.52087 L65.7683478,126.970109 L65.4976304,126.970109 C65.3131957,126.228717 65.0091522,125.711935 64.5937174,125.423413 C64.1801087,125.126217 63.7706087,124.979217 63.3633913,124.979217 C63.0470217,124.979217 62.7708261,125.073717 62.5357174,125.262261 C62.3028913,125.445326 62.1860217,125.704174 62.1860217,126.034239 C62.1860217,126.331891 62.276413,126.583891 62.4553696,126.792522 C62.6361522,127.006174 62.9137174,127.231239 63.2926304,127.464522 L64.302,128.086304 C64.9370217,128.478457 65.3839565,128.83637 65.6432609,129.161413 C65.8975435,129.489196 66.0253696,129.880435 66.0253696,130.327826 C66.0253696,130.930435 65.7989348,131.433065 65.3451522,131.838457 C64.8922826,132.241109 64.3106739,132.441065 63.6053478,132.441065 C63.2497174,132.441065 62.8803913,132.371674 62.4946304,132.23837 C62.108413,132.105065 61.886087,132.038413 61.8303913,132.038413 C61.6961739,132.038413 61.604413,132.079957 61.5583043,132.166239 C61.5112826,132.252065 61.4806957,132.344283 61.467,132.441065 L61.2086087,132.441065 L60.8611957,129.98863 L61.131,129.98863" id="Fill-35" fill="#FFFFFE"></path>
                        <path d="M66.9931957,124.673804 L73.5041087,124.673804 L73.5538696,126.625891 L73.2863478,126.625891 C73.1498478,126.00913 72.9777391,125.611957 72.7691087,125.426152 C72.5586522,125.237152 72.1194783,125.145848 71.4461087,125.145848 L70.8202174,125.145848 L70.8202174,131.04137 C70.8202174,131.480087 70.8868696,131.757652 71.0251957,131.863565 C71.1616957,131.966283 71.4602609,132.035674 71.924087,132.069 L71.924087,132.28813 L68.5732174,132.28813 L68.5732174,132.069 C69.0648913,132.032935 69.3730435,131.95213 69.4949348,131.829783 C69.6145435,131.705152 69.678913,131.394261 69.678913,130.902587 L69.678913,125.145848 L69.0484565,125.145848 C68.4097826,125.145848 67.9738043,125.237152 67.7455435,125.423413 C67.514087,125.606935 67.3401522,126.006848 67.2237391,126.625891 L66.9420652,126.625891 L66.9931957,124.673804" id="Fill-36" fill="#FFFFFE"></path>
                        <path d="M78.0328043,129.344478 L76.7093478,126.170283 L75.3826957,129.344478 L78.0328043,129.344478 Z M73.0708696,132.28813 L73.0708696,132.069 C73.3639565,132.035674 73.5885652,131.927022 73.7360217,131.741217 C73.8830217,131.552217 74.1363913,131.035891 74.4975,130.186304 L76.8851087,124.543239 L77.1357391,124.543239 L79.9917391,131.069674 C80.187587,131.494239 80.3368696,131.760848 80.4532826,131.863565 C80.567413,131.963087 80.7618913,132.032935 81.0339783,132.069 L81.0339783,132.28813 L78.1021957,132.28813 L78.1021957,132.069 C78.4372826,132.038413 78.6513913,132.005087 78.7513696,131.960804 C78.8486087,131.919261 78.8956304,131.816087 78.8956304,131.646717 C78.8956304,131.591478 78.8778261,131.494239 78.8403913,131.355 C78.8029565,131.213478 78.7513696,131.066478 78.6851739,130.910804 L78.2245435,129.8115 L75.1900435,129.8115 C74.8887391,130.557913 74.7111522,131.016261 74.6499783,131.180609 C74.592913,131.344043 74.5650652,131.474609 74.5650652,131.569109 C74.5650652,131.763587 74.6417609,131.894152 74.7997174,131.969022 C74.8969565,132.013304 75.0841304,132.04663 75.3525652,132.069 L75.3525652,132.28813 L73.0708696,132.28813 Z" id="Fill-37" fill="#FFFFFE"></path>
                        <path d="M85.2718696,128.100457 C85.8772174,127.850739 86.1794348,127.372761 86.1794348,126.678391 C86.1794348,126.006848 85.9078043,125.551239 85.3599783,125.306543 C85.0687174,125.173696 84.6825,125.107043 84.2026957,125.107043 C83.8771957,125.107043 83.6804348,125.132152 83.6055652,125.175978 C83.5306957,125.223457 83.4941739,125.33713 83.4941739,125.509696 L83.4941739,128.356109 C84.3250435,128.328261 84.9162391,128.241978 85.2718696,128.100457 Z M81.3361957,132.069 C81.7813043,132.027457 82.0556739,131.943913 82.1670652,131.813348 C82.2725217,131.680043 82.3277609,131.37737 82.3277609,130.902587 L82.3277609,125.91737 C82.3277609,125.514717 82.2670435,125.250848 82.1474348,125.126217 C82.0255435,125.00387 81.7525435,124.920783 81.3361957,124.890196 L81.3361957,124.673804 L84.5245435,124.673804 C85.185587,124.673804 85.7407174,124.756891 86.1794348,124.923522 C87.0185217,125.243087 87.4376087,125.828804 87.4376087,126.684326 C87.4376087,127.259087 87.2513478,127.701 86.8820217,128.008696 C86.510413,128.314109 86.0023043,128.517261 85.3663696,128.6145 L87.7320652,131.527565 C87.8818043,131.705152 88.0260652,131.835717 88.1735217,131.916065 C88.3205217,131.99687 88.5067826,132.04663 88.7350435,132.069 L88.7350435,132.28813 L86.8820217,132.28813 L83.9968043,128.74187 L83.4941739,128.769717 L83.4941739,131.03863 C83.4941739,131.458174 83.5608261,131.730261 83.6881957,131.843935 C83.8192174,131.958065 84.0995217,132.032935 84.5327609,132.069 L84.5327609,132.28813 L81.3361957,132.28813 L81.3361957,132.069 Z" id="Fill-38" fill="#FFFFFE"></path>
                        <g id="Group-42" transform="translate(91.760870, 124.173913)">
                            <mask id="mask-6" fill="white">
                                <use xlink:href="#path-5"></use>
                            </mask>
                            <g id="Clip-40"></g>
                            <path d="M1.50286957,7.70334783 C1.66173913,7.90878261 1.88634783,8.01195652 2.18673913,8.01195652 C2.79482609,8.01195652 3.33352174,7.54767391 3.8051087,6.62047826 C4.20547826,5.8233913 4.40497826,5.09021739 4.40497826,4.42415217 C4.40497826,4.14019565 4.3721087,3.9123913 4.30545652,3.73754348 C4.1748913,3.41021739 3.9333913,3.24586957 3.58552174,3.24586957 C3.01669565,3.24586957 2.47845652,3.67956522 1.9781087,4.54284783 C1.50926087,5.3486087 1.27004348,6.1425 1.27004348,6.9258913 C1.27004348,7.23723913 1.3503913,7.49517391 1.50286957,7.70334783 Z M4.98019565,3.51841304 C5.23813043,3.85441304 5.36915217,4.24884783 5.36915217,4.70947826 C5.36915217,5.50428261 5.01854348,6.28447826 4.32234783,7.04778261 C3.60013043,7.84532609 2.83043478,8.2425 2.01097826,8.2425 C1.49465217,8.2425 1.08378261,8.09230435 0.772434783,7.79236957 C0.461543478,7.49243478 0.306326087,7.07015217 0.306326087,6.52871739 C0.306326087,5.70652174 0.655565217,4.9181087 1.3503913,4.16804348 C2.06119565,3.39880435 2.82769565,3.01304348 3.65263043,3.01304348 C4.28308696,3.01304348 4.72454348,3.18515217 4.98019565,3.51841304 Z" id="Fill-39" fill="#FFFFFE" mask="url(#mask-6)"></path>
                            <path d="M10.4986304,1.35815217 C10.4173696,1.46041304 10.3005,1.51336957 10.1598913,1.51336957 C10.0288696,1.51336957 9.92615217,1.47456522 9.84580435,1.39421739 C9.765,1.31341304 9.72391304,1.21617391 9.72391304,1.10797826 C9.72391304,1.03036957 9.75678261,0.899804348 9.82617391,0.716282609 C9.82617391,0.66926087 9.80426087,0.624521739 9.75404348,0.588456522 C9.71478261,0.552391304 9.66502174,0.538695652 9.60065217,0.538695652 C9.31806522,0.538695652 9.08204348,0.838630435 8.89258696,1.44397826 C8.78484783,1.79367391 8.66523913,2.38258696 8.53147826,3.20706522 L9.78691304,3.20706522 L9.70702174,3.57958696 L8.42921739,3.57958696 L7.35730435,7.25915217 C7.12995652,8.22834783 6.82408696,9.01128261 6.4406087,9.60567391 C6.05758696,10.2055435 5.56865217,10.5 4.97152174,10.5 C4.69669565,10.5 4.47208696,10.4306087 4.29723913,10.2831522 C4.12147826,10.1388913 4.03336957,9.97545652 4.03336957,9.79741304 C4.03336957,9.68054348 4.06897826,9.57554348 4.1411087,9.47830435 C4.21871739,9.38106522 4.32736957,9.33358696 4.47482609,9.33358696 C4.60219565,9.33358696 4.71084783,9.37513043 4.79941304,9.45867391 C4.88843478,9.54176087 4.93317391,9.64447826 4.93317391,9.76956522 C4.93317391,9.83621739 4.91354348,9.9056087 4.87428261,9.97226087 C4.83319565,10.0416522 4.81630435,10.0891304 4.81630435,10.1165217 C4.81630435,10.1498478 4.83593478,10.1776957 4.88021739,10.2000652 C4.92130435,10.2224348 4.97745652,10.2333913 5.04730435,10.2333913 C5.36367391,10.2333913 5.63302174,9.98321739 5.8548913,9.48606522 C5.96902174,9.2253913 6.07447826,8.86702174 6.17171739,8.41186957 L7.50978261,3.57958696 L6.47119565,3.57958696 L6.54971739,3.20706522 L7.63715217,3.20706522 C7.84076087,2.3351087 8.07358696,1.69095652 8.32376087,1.27141304 C8.70723913,0.62726087 9.17380435,0.305413043 9.73167391,0.305413043 C9.98686957,0.305413043 10.1955,0.377543478 10.3648696,0.52226087 C10.5342391,0.66926087 10.6209783,0.832695652 10.6209783,1.01941304 C10.6209783,1.14130435 10.5817174,1.25223913 10.4986304,1.35815217" id="Fill-41" fill="#FFFFFE" mask="url(#mask-6)"></path>
                        </g>
                        <path d="M104.283717,132.107804 C104.622457,132.082696 104.863957,132.032935 105.003196,131.960804 C105.236022,131.841196 105.399913,131.602891 105.491674,131.255478 L107.177152,125.170957 C106.296978,125.170957 105.711261,125.237152 105.427304,125.373652 C105.141522,125.5065 104.811457,125.909609 104.436196,126.587087 L104.228478,126.547826 L104.705087,124.773326 L110.846217,124.773326 L110.34313,126.648261 L110.138152,126.625891 L110.165543,126.223239 C110.165543,125.870348 110.084739,125.609674 109.926783,125.43437 C109.767913,125.262261 109.451543,125.170957 108.974478,125.170957 L108.335348,125.170957 L106.722,130.910804 C106.682739,131.032696 106.655348,131.141348 106.635717,131.238587 C106.602848,131.388783 106.585957,131.502457 106.585957,131.588283 C106.585957,131.816087 106.655348,131.955326 106.790935,132.010565 C106.929717,132.063522 107.205457,132.096848 107.607652,132.107804 L107.607652,132.28813 L104.283717,132.28813 L104.283717,132.107804" id="Fill-43" fill="#FFFFFE"></path>
                        <path d="M112.239522,129.136304 C112.690109,128.73913 112.914717,128.341957 112.914717,127.950717 C112.914717,127.806 112.879109,127.695065 112.812,127.611522 C112.742609,127.528435 112.64537,127.486891 112.515261,127.486891 C112.26737,127.486891 112.029065,127.58687 111.795783,127.797783 C111.562043,128.003217 111.351587,128.2365 111.162587,128.500826 C110.96537,128.806239 110.809696,129.100239 110.690087,129.380543 C110.62663,129.528 110.559978,129.700109 110.49013,129.891391 C111.204587,129.786391 111.787565,129.530739 112.239522,129.136304 Z M110.415261,128.378022 C111.157109,127.603761 111.923152,127.214348 112.714761,127.214348 C113.006478,127.214348 113.240217,127.281457 113.412326,127.4175 C113.584435,127.553087 113.669804,127.7535 113.669804,128.01737 C113.669804,128.556065 113.353435,129.016696 112.725717,129.400174 C112.089783,129.783196 111.426457,130.016935 110.729348,130.102761 L110.410239,130.141565 C110.362761,130.2945 110.326239,130.416848 110.310261,130.505413 C110.29063,130.599913 110.282413,130.716326 110.282413,130.852826 C110.282413,131.180609 110.38787,131.433065 110.604261,131.616587 C110.81837,131.799652 111.076304,131.888217 111.370304,131.888217 C111.651065,131.888217 111.951,131.796913 112.26737,131.610652 C112.448152,131.499717 112.707,131.307978 113.048478,131.030413 L113.195478,131.158239 C113.026109,131.369152 112.784609,131.588283 112.470522,131.816087 C111.912652,132.216 111.351587,132.416413 110.787326,132.416413 C110.392891,132.416413 110.040913,132.274435 109.740522,131.99687 C109.443326,131.716565 109.290848,131.313913 109.290848,130.791652 C109.290848,129.961239 109.665652,129.158674 110.415261,128.378022 Z" id="Fill-44" fill="#FFFFFE"></path>
                        <path d="M113.853783,131.596957 C113.945543,131.533043 114.036391,131.502457 114.128152,131.502457 C114.17563,131.502457 114.219913,131.510674 114.261913,131.524826 C114.309391,131.535783 114.356413,131.558152 114.411652,131.588283 L114.60887,131.694196 C114.633522,131.713826 114.66137,131.721587 114.686478,131.727522 C114.708848,131.733 114.736239,131.735283 114.767283,131.735283 C114.861326,131.735283 114.933457,131.713826 114.983217,131.663152 C115.030696,131.616587 115.166739,131.454978 115.37537,131.174674 C115.513696,130.991609 115.827783,130.544217 116.322652,129.836152 C116.322652,129.8115 116.277913,129.608348 116.19163,129.233543 C116.103065,128.856 116.024543,128.539174 115.956065,128.275304 C115.883935,128.011435 115.819565,127.836587 115.761587,127.7535 C115.708174,127.667217 115.603174,127.628413 115.447957,127.628413 C115.394543,127.628413 115.291826,127.645304 115.139348,127.683652 C115.03937,127.706022 114.933457,127.73113 114.820239,127.761717 L114.772761,127.575457 L115.391804,127.359065 C115.552957,127.30337 115.699957,127.259087 115.839196,127.225761 C115.972043,127.192435 116.091652,127.175543 116.186152,127.175543 C116.342283,127.175543 116.460522,127.223022 116.539043,127.317522 C116.658652,127.467261 116.76137,127.767196 116.841261,128.211848 L116.95813,128.853261 C117.299609,128.333739 117.563935,127.970348 117.750196,127.758978 C117.922304,127.567239 118.079804,127.425717 118.229543,127.328478 C118.382935,127.236717 118.527652,127.186957 118.6605,127.186957 C118.78787,127.186957 118.894239,127.206587 118.97413,127.245391 C119.116109,127.311587 119.188239,127.442152 119.188239,127.631152 C119.188239,127.756239 119.151717,127.858957 119.083239,127.928348 C119.010652,128.003217 118.918891,128.036543 118.802022,128.036543 C118.760478,128.036543 118.72487,128.031065 118.68287,128.022848 C118.647261,128.011435 118.608,128.000478 118.566,127.978109 L118.419,127.92013 C118.380652,127.897761 118.338652,127.884065 118.30213,127.87037 C118.261043,127.858957 118.235935,127.850739 118.219043,127.850739 C118.046935,127.850739 117.808174,128.06713 117.508239,128.508587 C117.207848,128.944565 117.05537,129.194739 117.05537,129.26413 C117.05537,129.319826 117.090978,129.500152 117.160826,129.8115 C117.230217,130.119196 117.307826,130.441957 117.391826,130.788457 C117.469435,131.110761 117.533348,131.335826 117.583565,131.458174 C117.668935,131.660413 117.772109,131.763587 117.880304,131.763587 C117.983022,131.763587 118.088935,131.705152 118.193935,131.591478 C118.30213,131.477348 118.457804,131.277848 118.674652,130.98613 L118.82987,131.080174 C118.665978,131.371891 118.502543,131.622065 118.326783,131.829783 C117.999913,132.218739 117.688565,132.416413 117.391826,132.416413 C117.205109,132.416413 117.05537,132.326935 116.943978,132.146609 C116.883261,132.043891 116.82163,131.871783 116.76137,131.630283 L116.410761,130.244283 L115.256217,131.754913 C115.027957,132.0165 114.855848,132.191348 114.7335,132.283109 C114.611609,132.371674 114.45913,132.416413 114.281543,132.416413 C114.042783,132.416413 113.875696,132.338348 113.792152,132.191348 C113.741935,132.113739 113.720022,132.019239 113.720022,131.910587 C113.720022,131.763587 113.761565,131.65813 113.853783,131.596957" id="Fill-45" fill="#FFFFFE"></path>
                        <path d="M123.179152,127.614261 C123.053609,127.486891 122.90387,127.419783 122.726283,127.419783 C122.112717,127.419783 121.540696,127.892283 121.0125,128.83637 C120.54913,129.669522 120.315391,130.383522 120.315391,130.982935 C120.315391,131.285609 120.379761,131.505196 120.510783,131.641696 C120.638152,131.782761 120.796109,131.852152 120.987391,131.852152 C121.551196,131.852152 122.093087,131.391522 122.61763,130.474826 C123.115239,129.639391 123.3645,128.88613 123.3645,128.211848 C123.3645,127.942043 123.304239,127.742087 123.179152,127.614261 Z M123.356739,127.414761 C123.445761,127.49237 123.511957,127.597826 123.561717,127.728391 L123.590478,127.806 L123.717848,127.39513 C123.734739,127.347652 123.747978,127.317522 123.756196,127.30337 C123.770348,127.283739 123.798196,127.272783 123.840196,127.270043 L124.492565,127.200652 C124.528174,127.200652 124.550543,127.206587 124.553283,127.220283 C124.559674,127.233978 124.559674,127.256348 124.550543,127.289674 C124.537304,127.339891 124.523152,127.378696 124.514935,127.408826 C124.505804,127.43713 124.492565,127.475935 124.478413,127.528435 L123.922826,129.536217 C123.800935,129.977674 123.698217,130.352478 123.611935,130.674783 C123.476348,131.244065 123.4065,131.565913 123.4065,131.646717 C123.4065,131.702413 123.421109,131.741217 123.451239,131.763587 C123.476348,131.788696 123.511957,131.799652 123.551217,131.799652 C123.586826,131.799652 123.626087,131.791435 123.668087,131.769065 C123.706435,131.743957 123.756196,131.71063 123.817826,131.663152 L123.917804,131.585543 C123.947935,131.558152 123.984457,131.530304 124.020065,131.494239 C124.062065,131.458174 124.109087,131.413435 124.167065,131.360935 L124.534565,131.002565 L124.667413,131.119435 C124.267957,131.616587 123.945196,131.958065 123.703696,132.136109 C123.461739,132.313239 123.22937,132.402261 123.009783,132.402261 C122.868261,132.402261 122.759152,132.355239 122.682,132.258 C122.603935,132.1635 122.56513,132.041152 122.56513,131.894152 C122.56513,131.763587 122.589783,131.565913 122.643196,131.318935 C122.693413,131.066478 122.743174,130.855565 122.790652,130.683457 C122.723543,130.79713 122.609413,130.961022 122.451457,131.174674 C122.293043,131.388783 122.098565,131.596957 121.864826,131.799652 C121.593196,132.043891 121.331609,132.213261 121.081891,132.315978 C120.88513,132.38263 120.69887,132.416413 120.521283,132.416413 C120.215413,132.416413 119.943326,132.29087 119.696348,132.043891 C119.452109,131.793717 119.327478,131.438543 119.327478,130.982935 C119.327478,130.194065 119.682196,129.375522 120.391174,128.522283 C121.123891,127.633891 121.881717,127.186957 122.671043,127.186957 C122.965043,127.186957 123.195587,127.261826 123.356739,127.414761 Z" id="Fill-46" fill="#FFFFFE"></path>
                        <g id="Group-50" transform="translate(0.000000, 41.086957)">
                            <mask id="mask-8" fill="white">
                                <use xlink:href="#path-7"></use>
                            </mask>
                            <g id="Clip-48"></g>
                            <path d="M125.29787,89.5184348 L125.48413,89.5184348 C125.567217,89.9795217 125.666739,90.3182609 125.778587,90.5323696 C125.986304,90.9263478 126.292174,91.1240217 126.705783,91.1240217 C126.936783,91.1240217 127.130804,91.0432174 127.286022,90.8820652 C127.441239,90.720913 127.519761,90.5045217 127.519761,90.2406522 C127.519761,90.0740217 127.50013,89.9407174 127.463609,89.8348043 C127.419783,89.7298043 127.370022,89.6353043 127.308391,89.5490217 L126.842283,88.8546522 C126.556043,88.4355652 126.381196,88.1552609 126.309065,88.0105435 C126.200413,87.7964348 126.147457,87.5832391 126.147457,87.3663913 C126.147457,87.0413478 126.261587,86.7551087 126.500804,86.5021957 C126.73363,86.2501957 127.06963,86.1273913 127.50013,86.1273913 C127.682739,86.1273913 127.894109,86.1607174 128.133326,86.2305652 C128.369348,86.2999565 128.533696,86.3360217 128.619065,86.3360217 C128.713565,86.3360217 128.780674,86.3191304 128.827696,86.277587 C128.872435,86.2415217 128.916261,86.1917609 128.952783,86.1273913 L129.113022,86.1273913 L128.880652,87.7215652 L128.693935,87.7215652 C128.646913,87.3577174 128.572043,87.0888261 128.474804,86.9053043 C128.294478,86.5665652 128.008239,86.3999348 127.619739,86.3999348 C127.455848,86.3999348 127.305652,86.4524348 127.17463,86.552413 C127.044522,86.6551304 126.980152,86.8053261 126.980152,87.0052826 C126.980152,87.1577609 127.008913,87.2910652 127.06963,87.4106739 C127.128522,87.5275435 127.25863,87.7329783 127.467261,88.0269783 L127.863978,88.6049348 C128.072609,88.8989348 128.219609,89.1408913 128.302696,89.3239565 C128.385783,89.5097609 128.430065,89.712913 128.430065,89.9293043 C128.430065,90.3264783 128.257957,90.6679565 127.916478,90.9432391 C127.572261,91.2153261 127.16413,91.3541087 126.688891,91.3541087 C126.536413,91.3541087 126.316826,91.3207826 126.033326,91.2596087 C125.753478,91.1961522 125.586848,91.1628261 125.542109,91.1628261 C125.467239,91.1628261 125.412,91.1792609 125.378217,91.212587 C125.342609,91.2431739 125.30837,91.2901957 125.278239,91.3541087 L125.089239,91.3541087 L125.29787,89.5184348" id="Fill-47" fill="#FFFFFE" mask="url(#mask-8)"></path>
                            <polyline id="Fill-49" fill="#FFFFFE" mask="url(#mask-8)" points="0.00547826087 0.392608696 0.00547826087 1.87082609 59.4373043 1.87082609 57.6395217 0.392608696 0.00547826087 0.392608696"></polyline>
                        </g>
                        <polyline id="Fill-51" fill="#FFFFFE" points="81.2864348 41.4795652 79.5018913 42.9577826 138.933717 42.9577826 138.933717 41.4795652 81.2864348 41.4795652"></polyline>
                        <polyline id="Fill-52" fill="#FFFFFE" points="86.7902609 37.1366739 73.5584348 37.1366739 69.4675435 24.5531087 65.3798478 37.1366739 52.1493913 37.1366739 62.8525435 44.9176304 62.8429565 44.9482174 58.7621087 57.5021087 58.8063913 57.4715217 69.4675435 49.7229783 80.1314348 57.4715217 80.1761739 57.5021087 76.0953261 44.9482174 76.0852826 44.9176304 86.7208696 37.1891739 86.7902609 37.1366739"></polyline>
                        <path d="M75.5246739,44.8925217 L69.4675435,42.9577826 L79.2594783,56.405087 L69.4675435,49.2915652 L69.4675435,42.9577826 L59.6728696,56.4105652 L63.4108696,44.8993696 L69.4675435,42.9577826 L53.6175652,37.7762609 L65.7240652,37.7762609 L69.4675435,42.9577826 L69.4675435,26.2591304 L73.2105652,37.7762609 L69.4675435,42.9577826 L85.3074783,37.7762609 L75.5246739,44.8925217 Z M73.9542391,36.7819565 L73.9318696,36.7819565 L69.4675435,23.0461304 L65.0050435,36.7819565 L50.5611522,36.7819565 L62.2458261,45.2718913 L57.7815,59.0086304 L69.4675435,50.5191522 L81.1088478,58.9743913 L81.1088478,58.9757609 L81.1558696,59.0086304 L76.703413,45.3061304 L76.6924565,45.2718913 L88.2990652,36.8362826 L88.3018043,36.8362826 L88.3766739,36.7819565 L73.9542391,36.7819565 Z" id="Fill-53" fill="#FFFFFE"></path>
                    </g>
                </g>
            </g>
        </g>
    </g>
</svg>